<?xml version="1.0" encoding="UTF-8" standalone="no"?>
<!-- Created with Inkscape (http://www.inkscape.org/) -->

<svg
   xmlns:dc="http://purl.org/dc/elements/1.1/"
   xmlns:cc="http://creativecommons.org/ns#"
   xmlns:rdf="http://www.w3.org/1999/02/22-rdf-syntax-ns#"
   xmlns:svg="http://www.w3.org/2000/svg"
   xmlns="http://www.w3.org/2000/svg"
   xmlns:sodipodi="http://sodipodi.sourceforge.net/DTD/sodipodi-0.dtd"
   xmlns:inkscape="http://www.inkscape.org/namespaces/inkscape"
   width="799.84863"
   height="276.97122"
   id="svg3169"
   version="1.1"
   inkscape:version="0.48.3.1 r9886"
   sodipodi:docname="exampleColorChange.svg">
  <sodipodi:namedview
     id="base"
     pagecolor="#ffffff"
     bordercolor="#666666"
     borderopacity="1.0"
     inkscape:pageopacity="0.0"
     inkscape:pageshadow="2"
     inkscape:zoom="0.9899495"
     inkscape:cx="468.63556"
     inkscape:cy="-42.930529"
     inkscape:document-units="px"
     inkscape:current-layer="layer1"
     showgrid="false"
     inkscape:window-width="1920"
     inkscape:window-height="1123"
     inkscape:window-x="0"
     inkscape:window-y="24"
     inkscape:window-maximized="1"
     fit-margin-top="0"
     fit-margin-left="0"
     fit-margin-right="0"
     fit-margin-bottom="0"
     showguides="true"
     inkscape:guide-bbox="true" />
  <defs
     id="defs3171">
    <marker
       inkscape:stockid="DotM"
       orient="auto"
       refY="0"
       refX="0"
       id="DotM"
       style="overflow:visible">
      <path
         id="path4197"
         d="m -2.5,-1 c 0,2.76 -2.24,5 -5,5 -2.76,0 -5,-2.24 -5,-5 0,-2.76 2.24,-5 5,-5 2.76,0 5,2.24 5,5 z"
         style="fill-rule:evenodd;stroke:#000000;stroke-width:1pt"
         transform="matrix(0.4,0,0,0.4,2.96,0.4)"
         inkscape:connector-curvature="0" />
    </marker>
    <marker
       inkscape:stockid="DotS"
       orient="auto"
       refY="0"
       refX="0"
       id="DotS"
       style="overflow:visible">
      <path
         id="path4200"
         d="m -2.5,-1 c 0,2.76 -2.24,5 -5,5 -2.76,0 -5,-2.24 -5,-5 0,-2.76 2.24,-5 5,-5 2.76,0 5,2.24 5,5 z"
         style="fill-rule:evenodd;stroke:#000000;stroke-width:1pt"
         transform="matrix(0.2,0,0,0.2,1.48,0.2)"
         inkscape:connector-curvature="0" />
    </marker>
    <marker
       inkscape:stockid="DotL"
       orient="auto"
       refY="0"
       refX="0"
       id="DotL"
       style="overflow:visible">
      <path
         id="path4194"
         d="m -2.5,-1 c 0,2.76 -2.24,5 -5,5 -2.76,0 -5,-2.24 -5,-5 0,-2.76 2.24,-5 5,-5 2.76,0 5,2.24 5,5 z"
         style="fill-rule:evenodd;stroke:#000000;stroke-width:1pt"
         transform="matrix(0.8,0,0,0.8,5.92,0.8)"
         inkscape:connector-curvature="0" />
    </marker>
    <marker
       inkscape:stockid="DotSv"
       orient="auto"
       refY="0"
       refX="0"
       id="DotSv"
       style="overflow:visible">
      <path
         id="path5142"
         d="m -2.5,-1 c 0,2.76 -2.24,5 -5,5 -2.76,0 -5,-2.24 -5,-5 0,-2.76 2.24,-5 5,-5 2.76,0 5,2.24 5,5 z"
         style="fill:#5e5e5e;fill-rule:evenodd;stroke:#5e5e5e;stroke-width:1pt"
         transform="matrix(0.2,0,0,0.2,1.48,0.2)"
         inkscape:connector-curvature="0" />
    </marker>
    <marker
       inkscape:stockid="DotS9"
       orient="auto"
       refY="0"
       refX="0"
       id="DotS9"
       style="overflow:visible">
      <path
         id="path5145"
         d="m -2.5,-1 c 0,2.76 -2.24,5 -5,5 -2.76,0 -5,-2.24 -5,-5 0,-2.76 2.24,-5 5,-5 2.76,0 5,2.24 5,5 z"
         style="fill:#5e5e5e;fill-rule:evenodd;stroke:#5e5e5e;stroke-width:1pt"
         transform="matrix(0.2,0,0,0.2,1.48,0.2)"
         inkscape:connector-curvature="0" />
    </marker>
    <marker
       inkscape:stockid="DotSv"
       orient="auto"
       refY="0"
       refX="0"
       id="DotSv-1"
       style="overflow:visible">
      <path
         id="path5142-3"
         d="m -2.5,-1 c 0,2.76 -2.24,5 -5,5 -2.76,0 -5,-2.24 -5,-5 0,-2.76 2.24,-5 5,-5 2.76,0 5,2.24 5,5 z"
         style="fill:#5e5e5e;fill-rule:evenodd;stroke:#5e5e5e;stroke-width:1pt"
         transform="matrix(0.2,0,0,0.2,1.48,0.2)"
         inkscape:connector-curvature="0" />
    </marker>
    <marker
       inkscape:stockid="DotS9"
       orient="auto"
       refY="0"
       refX="0"
       id="DotS9-6"
       style="overflow:visible">
      <path
         id="path5145-1"
         d="m -2.5,-1 c 0,2.76 -2.24,5 -5,5 -2.76,0 -5,-2.24 -5,-5 0,-2.76 2.24,-5 5,-5 2.76,0 5,2.24 5,5 z"
         style="fill:#5e5e5e;fill-rule:evenodd;stroke:#5e5e5e;stroke-width:1pt"
         transform="matrix(0.2,0,0,0.2,1.48,0.2)"
         inkscape:connector-curvature="0" />
    </marker>
    <marker
       inkscape:stockid="DotSv"
       orient="auto"
       refY="0"
       refX="0"
       id="DotSv-3"
       style="overflow:visible">
      <path
         id="path5142-8"
         d="m -2.5,-1 c 0,2.76 -2.24,5 -5,5 -2.76,0 -5,-2.24 -5,-5 0,-2.76 2.24,-5 5,-5 2.76,0 5,2.24 5,5 z"
         style="fill:#5e5e5e;fill-rule:evenodd;stroke:#5e5e5e;stroke-width:1pt"
         transform="matrix(0.2,0,0,0.2,1.48,0.2)"
         inkscape:connector-curvature="0" />
    </marker>
    <marker
       inkscape:stockid="DotS9"
       orient="auto"
       refY="0"
       refX="0"
       id="DotS9-4"
       style="overflow:visible">
      <path
         id="path5145-4"
         d="m -2.5,-1 c 0,2.76 -2.24,5 -5,5 -2.76,0 -5,-2.24 -5,-5 0,-2.76 2.24,-5 5,-5 2.76,0 5,2.24 5,5 z"
         style="fill:#5e5e5e;fill-rule:evenodd;stroke:#5e5e5e;stroke-width:1pt"
         transform="matrix(0.2,0,0,0.2,1.48,0.2)"
         inkscape:connector-curvature="0" />
    </marker>
    <marker
       inkscape:stockid="DotSv"
       orient="auto"
       refY="0"
       refX="0"
       id="DotSv-5"
       style="overflow:visible">
      <path
         id="path5142-39"
         d="m -2.5,-1 c 0,2.76 -2.24,5 -5,5 -2.76,0 -5,-2.24 -5,-5 0,-2.76 2.24,-5 5,-5 2.76,0 5,2.24 5,5 z"
         style="fill:#5e5e5e;fill-rule:evenodd;stroke:#5e5e5e;stroke-width:1pt"
         transform="matrix(0.2,0,0,0.2,1.48,0.2)"
         inkscape:connector-curvature="0" />
    </marker>
    <marker
       inkscape:stockid="DotS9"
       orient="auto"
       refY="0"
       refX="0"
       id="DotS9-5"
       style="overflow:visible">
      <path
         id="path5145-7"
         d="m -2.5,-1 c 0,2.76 -2.24,5 -5,5 -2.76,0 -5,-2.24 -5,-5 0,-2.76 2.24,-5 5,-5 2.76,0 5,2.24 5,5 z"
         style="fill:#5e5e5e;fill-rule:evenodd;stroke:#5e5e5e;stroke-width:1pt"
         transform="matrix(0.2,0,0,0.2,1.48,0.2)"
         inkscape:connector-curvature="0" />
    </marker>
    <marker
       inkscape:stockid="DotSv"
       orient="auto"
       refY="0"
       refX="0"
       id="DotSv-34"
       style="overflow:visible">
      <path
         id="path5142-4"
         d="m -2.5,-1 c 0,2.76 -2.24,5 -5,5 -2.76,0 -5,-2.24 -5,-5 0,-2.76 2.24,-5 5,-5 2.76,0 5,2.24 5,5 z"
         style="fill:#5e5e5e;fill-rule:evenodd;stroke:#5e5e5e;stroke-width:1pt"
         transform="matrix(0.2,0,0,0.2,1.48,0.2)"
         inkscape:connector-curvature="0" />
    </marker>
    <marker
       inkscape:stockid="DotS9"
       orient="auto"
       refY="0"
       refX="0"
       id="DotS9-51"
       style="overflow:visible">
      <path
         id="path5145-15"
         d="m -2.5,-1 c 0,2.76 -2.24,5 -5,5 -2.76,0 -5,-2.24 -5,-5 0,-2.76 2.24,-5 5,-5 2.76,0 5,2.24 5,5 z"
         style="fill:#5e5e5e;fill-rule:evenodd;stroke:#5e5e5e;stroke-width:1pt"
         transform="matrix(0.2,0,0,0.2,1.48,0.2)"
         inkscape:connector-curvature="0" />
    </marker>
    <marker
       inkscape:stockid="DotSv"
       orient="auto"
       refY="0"
       refX="0"
       id="DotSv-9"
       style="overflow:visible">
      <path
         id="path5142-44"
         d="m -2.5,-1 c 0,2.76 -2.24,5 -5,5 -2.76,0 -5,-2.24 -5,-5 0,-2.76 2.24,-5 5,-5 2.76,0 5,2.24 5,5 z"
         style="fill:#5e5e5e;fill-rule:evenodd;stroke:#5e5e5e;stroke-width:1pt"
         transform="matrix(0.2,0,0,0.2,1.48,0.2)"
         inkscape:connector-curvature="0" />
    </marker>
    <marker
       inkscape:stockid="DotS9"
       orient="auto"
       refY="0"
       refX="0"
       id="DotS9-9"
       style="overflow:visible">
      <path
         id="path5145-16"
         d="m -2.5,-1 c 0,2.76 -2.24,5 -5,5 -2.76,0 -5,-2.24 -5,-5 0,-2.76 2.24,-5 5,-5 2.76,0 5,2.24 5,5 z"
         style="fill:#5e5e5e;fill-rule:evenodd;stroke:#5e5e5e;stroke-width:1pt"
         transform="matrix(0.2,0,0,0.2,1.48,0.2)"
         inkscape:connector-curvature="0" />
    </marker>
    <marker
       inkscape:stockid="DotSv"
       orient="auto"
       refY="0"
       refX="0"
       id="DotSv-30"
       style="overflow:visible">
      <path
         id="path5142-36"
         d="m -2.5,-1 c 0,2.76 -2.24,5 -5,5 -2.76,0 -5,-2.24 -5,-5 0,-2.76 2.24,-5 5,-5 2.76,0 5,2.24 5,5 z"
         style="fill:#5e5e5e;fill-rule:evenodd;stroke:#5e5e5e;stroke-width:1pt"
         transform="matrix(0.2,0,0,0.2,1.48,0.2)"
         inkscape:connector-curvature="0" />
    </marker>
    <marker
       inkscape:stockid="DotS9"
       orient="auto"
       refY="0"
       refX="0"
       id="DotS9-8"
       style="overflow:visible">
      <path
         id="path5145-6"
         d="m -2.5,-1 c 0,2.76 -2.24,5 -5,5 -2.76,0 -5,-2.24 -5,-5 0,-2.76 2.24,-5 5,-5 2.76,0 5,2.24 5,5 z"
         style="fill:#5e5e5e;fill-rule:evenodd;stroke:#5e5e5e;stroke-width:1pt"
         transform="matrix(0.2,0,0,0.2,1.48,0.2)"
         inkscape:connector-curvature="0" />
    </marker>
    <marker
       inkscape:stockid="DotSL"
       orient="auto"
       refY="0"
       refX="0"
       id="DotSL"
       style="overflow:visible">
      <path
         id="path6893"
         d="m -2.5,-1 c 0,2.76 -2.24,5 -5,5 -2.76,0 -5,-2.24 -5,-5 0,-2.76 2.24,-5 5,-5 2.76,0 5,2.24 5,5 z"
         style="fill:#5e5e5e;fill-rule:evenodd;stroke:#5e5e5e;stroke-width:1pt"
         transform="matrix(0.2,0,0,0.2,1.48,0.2)"
         inkscape:connector-curvature="0" />
    </marker>
    <marker
       inkscape:stockid="DotSq"
       orient="auto"
       refY="0"
       refX="0"
       id="DotSq"
       style="overflow:visible">
      <path
         id="path6896"
         d="m -2.5,-1 c 0,2.76 -2.24,5 -5,5 -2.76,0 -5,-2.24 -5,-5 0,-2.76 2.24,-5 5,-5 2.76,0 5,2.24 5,5 z"
         style="fill:#5e5e5e;fill-rule:evenodd;stroke:#5e5e5e;stroke-width:1pt"
         transform="matrix(0.2,0,0,0.2,1.48,0.2)"
         inkscape:connector-curvature="0" />
    </marker>
    <marker
       inkscape:stockid="DotSL"
       orient="auto"
       refY="0"
       refX="0"
       id="DotSL-4"
       style="overflow:visible">
      <path
         id="path6893-2"
         d="m -2.5,-1 c 0,2.76 -2.24,5 -5,5 -2.76,0 -5,-2.24 -5,-5 0,-2.76 2.24,-5 5,-5 2.76,0 5,2.24 5,5 z"
         style="fill:#5e5e5e;fill-rule:evenodd;stroke:#5e5e5e;stroke-width:1pt"
         transform="matrix(0.2,0,0,0.2,1.48,0.2)"
         inkscape:connector-curvature="0" />
    </marker>
    <marker
       inkscape:stockid="DotSq"
       orient="auto"
       refY="0"
       refX="0"
       id="DotSq-6"
       style="overflow:visible">
      <path
         id="path6896-9"
         d="m -2.5,-1 c 0,2.76 -2.24,5 -5,5 -2.76,0 -5,-2.24 -5,-5 0,-2.76 2.24,-5 5,-5 2.76,0 5,2.24 5,5 z"
         style="fill:#5e5e5e;fill-rule:evenodd;stroke:#5e5e5e;stroke-width:1pt"
         transform="matrix(0.2,0,0,0.2,1.48,0.2)"
         inkscape:connector-curvature="0" />
    </marker>
  </defs>
  <metadata
     id="metadata3174">
    <rdf:RDF>
      <cc:Work
         rdf:about="">
        <dc:format>image/svg+xml</dc:format>
        <dc:type
           rdf:resource="http://purl.org/dc/dcmitype/StillImage" />
        <dc:title></dc:title>
      </cc:Work>
    </rdf:RDF>
  </metadata>
  <g
     inkscape:label="Layer 1"
     inkscape:groupmode="layer"
     id="layer1"
     transform="translate(129.48218,10.12806)">
    <rect
       style="fill:#a9d4f8;fill-opacity:1;stroke:#418ccb;stroke-width:1.90543509;stroke-miterlimit:2.9000001;stroke-opacity:1;stroke-dasharray:none"
       id="rect3177"
       width="500.53058"
       height="275.0658"
       x="0.50507629"
       y="-9.1753426"
       rx="34.099998" />
    <rect
       style="fill:#59ff5b;fill-opacity:1;stroke:#00c404;stroke-width:2.21598911;stroke-miterlimit:2.9000001;stroke-opacity:1;stroke-dasharray:none"
       id="rect3177-0"
       width="198.41853"
       height="104.5508"
       x="43.689106"
       y="35.643642"
       rx="13.517799" />
    <path
       style="fill:none;stroke:#5e5e5e;stroke-width:3;stroke-linecap:butt;stroke-linejoin:miter;stroke-miterlimit:1.89999998;stroke-opacity:1;stroke-dasharray:none;marker-start:url(#DotSv);marker-end:url(#DotS9)"
       d="m 1.5152285,83.625888 42.8627305,0"
       id="path3947"
       inkscape:connector-curvature="0" />
    <rect
       style="fill:#59ff5b;fill-opacity:1;stroke:#00c404;stroke-width:2.05504489;stroke-miterlimit:2.9000001;stroke-opacity:1;stroke-dasharray:none"
       id="rect3177-0-5"
       width="170.64345"
       height="104.5508"
       x="275.2666"
       y="140.95204"
       rx="11.625546" />
    <path
       style="fill:none;stroke:#5e5e5e;stroke-width:3;stroke-linecap:butt;stroke-linejoin:miter;stroke-miterlimit:1.89999998;stroke-opacity:1;stroke-dasharray:none;marker-start:url(#DotSv);marker-end:url(#DotS9)"
       d="m 241.8132,84.13096 259.61731,0"
       id="path3947-8-7-0"
       inkscape:connector-curvature="0" />
    <path
       inkscape:connector-curvature="0"
       id="path6193"
       d="m 254.10515,84.530066 0.25846,87.767444 20.6767,0"
       style="fill:none;stroke:#5e5e5e;stroke-width:3;stroke-linecap:butt;stroke-linejoin:miter;stroke-miterlimit:4;stroke-opacity:1;stroke-dasharray:none;marker-start:url(#DotSL);marker-end:url(#DotSq)" />
    <path
       style="fill:none;stroke:#5e5e5e;stroke-width:3;stroke-linecap:butt;stroke-linejoin:miter;stroke-miterlimit:1.89999998;stroke-opacity:1;stroke-dasharray:none;marker-start:url(#DotSv);marker-end:url(#DotS9)"
       d="m 446.9108,194.74267 54.01221,0"
       id="path3947-6"
       inkscape:connector-curvature="0" />
    <text
       xml:space="preserve"
       style="font-size:40px;font-style:normal;font-weight:normal;line-height:125%;letter-spacing:0px;word-spacing:0px;fill:#009718;fill-opacity:1;stroke:none;font-family:Sans"
       x="53.033009"
       y="91.202026"
       id="text6959"
       sodipodi:linespacing="125%"><tspan
         sodipodi:role="line"
         id="tspan6961"
         x="53.033009"
         y="91.202026"
         style="font-size:28px;line-height:125%">ColorChange</tspan></text>
    <text
       xml:space="preserve"
       style="font-size:40px;font-style:normal;font-weight:normal;line-height:125%;letter-spacing:0px;word-spacing:0px;fill:#009718;fill-opacity:1;stroke:none;font-family:Sans"
       x="285.83508"
       y="200.56241"
       id="text6959-4"
       sodipodi:linespacing="125%"><tspan
         sodipodi:role="line"
         id="tspan6961-1"
         x="285.83508"
         y="200.56241"
         style="font-size:28px;line-height:125%">MixImages</tspan></text>
    <text
       xml:space="preserve"
       style="font-size:40px;font-style:normal;font-weight:normal;line-height:125%;letter-spacing:0px;word-spacing:0px;fill:#0d01a2;fill-opacity:1;stroke:none;font-family:Sans"
       x="30.266499"
       y="19.7451"
       id="text6959-5"
       sodipodi:linespacing="125%"
       inkscape:transform-center-x="-73.741136"
       inkscape:transform-center-y="52.527932"><tspan
         sodipodi:role="line"
         id="tspan6961-4"
         x="30.266499"
         y="19.7451"
         style="font-size:24px;line-height:125%;fill:#0d01a2;fill-opacity:1">Pipeline_ColorChange</tspan></text>
    <path
       inkscape:connector-curvature="0"
       id="path6193-2"
       d="m 20.111077,83.70807 3.156328,129.6751 252.505005,0"
       style="fill:none;stroke:#5e5e5e;stroke-width:3;stroke-linecap:butt;stroke-linejoin:miter;stroke-miterlimit:4;stroke-opacity:1;stroke-dasharray:none;marker-start:url(#DotSL);marker-end:url(#DotSq)" />
    <text
       xml:space="preserve"
       style="font-size:40px;font-style:normal;font-weight:normal;line-height:125%;letter-spacing:0px;word-spacing:0px;fill:#000000;fill-opacity:1;stroke:none;font-family:Sans"
       x="-130.30835"
       y="88.666512"
       id="text3970"
       sodipodi:linespacing="125%"><tspan
         sodipodi:role="line"
         id="tspan3972"
         x="-130.30835"
         y="88.666512"
         style="font-size:18px;font-style:italic;fill:#5e5e5e;fill-opacity:1;-inkscape-font-specification:Sans Italic">originalImage</tspan></text>
    <text
       xml:space="preserve"
       style="font-size:40px;font-style:normal;font-weight:normal;line-height:125%;letter-spacing:0px;word-spacing:0px;fill:#000000;fill-opacity:1;stroke:none;font-family:Sans"
       x="512.0661"
       y="90.096802"
       id="text3970-4"
       sodipodi:linespacing="125%"><tspan
         sodipodi:role="line"
         id="tspan3972-0"
         x="512.0661"
         y="90.096802"
         style="font-size:18px;font-style:italic;fill:#5e5e5e;fill-opacity:1;-inkscape-font-specification:Sans Italic">modifiedImage</tspan></text>
    <text
       xml:space="preserve"
       style="font-size:40px;font-style:normal;font-weight:normal;line-height:125%;letter-spacing:0px;word-spacing:0px;fill:#000000;fill-opacity:1;stroke:none;font-family:Sans"
       x="509.62332"
       y="200.20343"
       id="text3970-4-3"
       sodipodi:linespacing="125%"><tspan
         sodipodi:role="line"
         id="tspan3972-0-9"
         x="509.62332"
         y="200.20343"
         style="font-size:18px;font-style:italic;fill:#5e5e5e;fill-opacity:1;-inkscape-font-specification:Sans Italic">comparisonImage</tspan></text>
  </g>
</svg>
