<?xml version="1.0" encoding="UTF-8" standalone="no"?>
<!-- Created with Inkscape (http://www.inkscape.org/) -->

<svg
   xmlns:dc="http://purl.org/dc/elements/1.1/"
   xmlns:cc="http://creativecommons.org/ns#"
   xmlns:rdf="http://www.w3.org/1999/02/22-rdf-syntax-ns#"
   xmlns:svg="http://www.w3.org/2000/svg"
   xmlns="http://www.w3.org/2000/svg"
   xmlns:sodipodi="http://sodipodi.sourceforge.net/DTD/sodipodi-0.dtd"
   xmlns:inkscape="http://www.inkscape.org/namespaces/inkscape"
   width="507.37546"
   height="305.04578"
   id="svg3169"
   version="1.1"
   inkscape:version="0.48.3.1 r9886"
   sodipodi:docname="examplePipeline1.svg">
  <sodipodi:namedview
     id="base"
     pagecolor="#ffffff"
     bordercolor="#666666"
     borderopacity="1.0"
     inkscape:pageopacity="0.0"
     inkscape:pageshadow="2"
     inkscape:zoom="1.979899"
     inkscape:cx="262.78106"
     inkscape:cy="124.89398"
     inkscape:document-units="px"
     inkscape:current-layer="layer1"
     showgrid="false"
     inkscape:window-width="1920"
     inkscape:window-height="1123"
     inkscape:window-x="0"
     inkscape:window-y="24"
     inkscape:window-maximized="1"
     fit-margin-top="0"
     fit-margin-left="0"
     fit-margin-right="0"
     fit-margin-bottom="0" />
  <defs
     id="defs3171">
    <marker
       inkscape:stockid="DotM"
       orient="auto"
       refY="0"
       refX="0"
       id="DotM"
       style="overflow:visible">
      <path
         id="path4197"
         d="m -2.5,-1 c 0,2.76 -2.24,5 -5,5 -2.76,0 -5,-2.24 -5,-5 0,-2.76 2.24,-5 5,-5 2.76,0 5,2.24 5,5 z"
         style="fill-rule:evenodd;stroke:#000000;stroke-width:1pt"
         transform="matrix(0.4,0,0,0.4,2.96,0.4)"
         inkscape:connector-curvature="0" />
    </marker>
    <marker
       inkscape:stockid="DotS"
       orient="auto"
       refY="0"
       refX="0"
       id="DotS"
       style="overflow:visible">
      <path
         id="path4200"
         d="m -2.5,-1 c 0,2.76 -2.24,5 -5,5 -2.76,0 -5,-2.24 -5,-5 0,-2.76 2.24,-5 5,-5 2.76,0 5,2.24 5,5 z"
         style="fill-rule:evenodd;stroke:#000000;stroke-width:1pt"
         transform="matrix(0.2,0,0,0.2,1.48,0.2)"
         inkscape:connector-curvature="0" />
    </marker>
    <marker
       inkscape:stockid="DotL"
       orient="auto"
       refY="0"
       refX="0"
       id="DotL"
       style="overflow:visible">
      <path
         id="path4194"
         d="m -2.5,-1 c 0,2.76 -2.24,5 -5,5 -2.76,0 -5,-2.24 -5,-5 0,-2.76 2.24,-5 5,-5 2.76,0 5,2.24 5,5 z"
         style="fill-rule:evenodd;stroke:#000000;stroke-width:1pt"
         transform="matrix(0.8,0,0,0.8,5.92,0.8)"
         inkscape:connector-curvature="0" />
    </marker>
    <marker
       inkscape:stockid="DotSv"
       orient="auto"
       refY="0"
       refX="0"
       id="DotSv"
       style="overflow:visible">
      <path
         id="path5142"
         d="m -2.5,-1 c 0,2.76 -2.24,5 -5,5 -2.76,0 -5,-2.24 -5,-5 0,-2.76 2.24,-5 5,-5 2.76,0 5,2.24 5,5 z"
         style="fill:#5e5e5e;fill-rule:evenodd;stroke:#5e5e5e;stroke-width:1pt"
         transform="matrix(0.2,0,0,0.2,1.48,0.2)"
         inkscape:connector-curvature="0" />
    </marker>
    <marker
       inkscape:stockid="DotS9"
       orient="auto"
       refY="0"
       refX="0"
       id="DotS9"
       style="overflow:visible">
      <path
         id="path5145"
         d="m -2.5,-1 c 0,2.76 -2.24,5 -5,5 -2.76,0 -5,-2.24 -5,-5 0,-2.76 2.24,-5 5,-5 2.76,0 5,2.24 5,5 z"
         style="fill:#5e5e5e;fill-rule:evenodd;stroke:#5e5e5e;stroke-width:1pt"
         transform="matrix(0.2,0,0,0.2,1.48,0.2)"
         inkscape:connector-curvature="0" />
    </marker>
    <marker
       inkscape:stockid="DotSv"
       orient="auto"
       refY="0"
       refX="0"
       id="DotSv-1"
       style="overflow:visible">
      <path
         id="path5142-3"
         d="m -2.5,-1 c 0,2.76 -2.24,5 -5,5 -2.76,0 -5,-2.24 -5,-5 0,-2.76 2.24,-5 5,-5 2.76,0 5,2.24 5,5 z"
         style="fill:#5e5e5e;fill-rule:evenodd;stroke:#5e5e5e;stroke-width:1pt"
         transform="matrix(0.2,0,0,0.2,1.48,0.2)"
         inkscape:connector-curvature="0" />
    </marker>
    <marker
       inkscape:stockid="DotS9"
       orient="auto"
       refY="0"
       refX="0"
       id="DotS9-6"
       style="overflow:visible">
      <path
         id="path5145-1"
         d="m -2.5,-1 c 0,2.76 -2.24,5 -5,5 -2.76,0 -5,-2.24 -5,-5 0,-2.76 2.24,-5 5,-5 2.76,0 5,2.24 5,5 z"
         style="fill:#5e5e5e;fill-rule:evenodd;stroke:#5e5e5e;stroke-width:1pt"
         transform="matrix(0.2,0,0,0.2,1.48,0.2)"
         inkscape:connector-curvature="0" />
    </marker>
    <marker
       inkscape:stockid="DotSv"
       orient="auto"
       refY="0"
       refX="0"
       id="DotSv-3"
       style="overflow:visible">
      <path
         id="path5142-8"
         d="m -2.5,-1 c 0,2.76 -2.24,5 -5,5 -2.76,0 -5,-2.24 -5,-5 0,-2.76 2.24,-5 5,-5 2.76,0 5,2.24 5,5 z"
         style="fill:#5e5e5e;fill-rule:evenodd;stroke:#5e5e5e;stroke-width:1pt"
         transform="matrix(0.2,0,0,0.2,1.48,0.2)"
         inkscape:connector-curvature="0" />
    </marker>
    <marker
       inkscape:stockid="DotS9"
       orient="auto"
       refY="0"
       refX="0"
       id="DotS9-4"
       style="overflow:visible">
      <path
         id="path5145-4"
         d="m -2.5,-1 c 0,2.76 -2.24,5 -5,5 -2.76,0 -5,-2.24 -5,-5 0,-2.76 2.24,-5 5,-5 2.76,0 5,2.24 5,5 z"
         style="fill:#5e5e5e;fill-rule:evenodd;stroke:#5e5e5e;stroke-width:1pt"
         transform="matrix(0.2,0,0,0.2,1.48,0.2)"
         inkscape:connector-curvature="0" />
    </marker>
    <marker
       inkscape:stockid="DotSv"
       orient="auto"
       refY="0"
       refX="0"
       id="DotSv-5"
       style="overflow:visible">
      <path
         id="path5142-39"
         d="m -2.5,-1 c 0,2.76 -2.24,5 -5,5 -2.76,0 -5,-2.24 -5,-5 0,-2.76 2.24,-5 5,-5 2.76,0 5,2.24 5,5 z"
         style="fill:#5e5e5e;fill-rule:evenodd;stroke:#5e5e5e;stroke-width:1pt"
         transform="matrix(0.2,0,0,0.2,1.48,0.2)"
         inkscape:connector-curvature="0" />
    </marker>
    <marker
       inkscape:stockid="DotS9"
       orient="auto"
       refY="0"
       refX="0"
       id="DotS9-5"
       style="overflow:visible">
      <path
         id="path5145-7"
         d="m -2.5,-1 c 0,2.76 -2.24,5 -5,5 -2.76,0 -5,-2.24 -5,-5 0,-2.76 2.24,-5 5,-5 2.76,0 5,2.24 5,5 z"
         style="fill:#5e5e5e;fill-rule:evenodd;stroke:#5e5e5e;stroke-width:1pt"
         transform="matrix(0.2,0,0,0.2,1.48,0.2)"
         inkscape:connector-curvature="0" />
    </marker>
    <marker
       inkscape:stockid="DotSv"
       orient="auto"
       refY="0"
       refX="0"
       id="DotSv-34"
       style="overflow:visible">
      <path
         id="path5142-4"
         d="m -2.5,-1 c 0,2.76 -2.24,5 -5,5 -2.76,0 -5,-2.24 -5,-5 0,-2.76 2.24,-5 5,-5 2.76,0 5,2.24 5,5 z"
         style="fill:#5e5e5e;fill-rule:evenodd;stroke:#5e5e5e;stroke-width:1pt"
         transform="matrix(0.2,0,0,0.2,1.48,0.2)"
         inkscape:connector-curvature="0" />
    </marker>
    <marker
       inkscape:stockid="DotS9"
       orient="auto"
       refY="0"
       refX="0"
       id="DotS9-51"
       style="overflow:visible">
      <path
         id="path5145-15"
         d="m -2.5,-1 c 0,2.76 -2.24,5 -5,5 -2.76,0 -5,-2.24 -5,-5 0,-2.76 2.24,-5 5,-5 2.76,0 5,2.24 5,5 z"
         style="fill:#5e5e5e;fill-rule:evenodd;stroke:#5e5e5e;stroke-width:1pt"
         transform="matrix(0.2,0,0,0.2,1.48,0.2)"
         inkscape:connector-curvature="0" />
    </marker>
    <marker
       inkscape:stockid="DotSv"
       orient="auto"
       refY="0"
       refX="0"
       id="DotSv-9"
       style="overflow:visible">
      <path
         id="path5142-44"
         d="m -2.5,-1 c 0,2.76 -2.24,5 -5,5 -2.76,0 -5,-2.24 -5,-5 0,-2.76 2.24,-5 5,-5 2.76,0 5,2.24 5,5 z"
         style="fill:#5e5e5e;fill-rule:evenodd;stroke:#5e5e5e;stroke-width:1pt"
         transform="matrix(0.2,0,0,0.2,1.48,0.2)"
         inkscape:connector-curvature="0" />
    </marker>
    <marker
       inkscape:stockid="DotS9"
       orient="auto"
       refY="0"
       refX="0"
       id="DotS9-9"
       style="overflow:visible">
      <path
         id="path5145-16"
         d="m -2.5,-1 c 0,2.76 -2.24,5 -5,5 -2.76,0 -5,-2.24 -5,-5 0,-2.76 2.24,-5 5,-5 2.76,0 5,2.24 5,5 z"
         style="fill:#5e5e5e;fill-rule:evenodd;stroke:#5e5e5e;stroke-width:1pt"
         transform="matrix(0.2,0,0,0.2,1.48,0.2)"
         inkscape:connector-curvature="0" />
    </marker>
    <marker
       inkscape:stockid="DotSv"
       orient="auto"
       refY="0"
       refX="0"
       id="DotSv-30"
       style="overflow:visible">
      <path
         id="path5142-36"
         d="m -2.5,-1 c 0,2.76 -2.24,5 -5,5 -2.76,0 -5,-2.24 -5,-5 0,-2.76 2.24,-5 5,-5 2.76,0 5,2.24 5,5 z"
         style="fill:#5e5e5e;fill-rule:evenodd;stroke:#5e5e5e;stroke-width:1pt"
         transform="matrix(0.2,0,0,0.2,1.48,0.2)"
         inkscape:connector-curvature="0" />
    </marker>
    <marker
       inkscape:stockid="DotS9"
       orient="auto"
       refY="0"
       refX="0"
       id="DotS9-8"
       style="overflow:visible">
      <path
         id="path5145-6"
         d="m -2.5,-1 c 0,2.76 -2.24,5 -5,5 -2.76,0 -5,-2.24 -5,-5 0,-2.76 2.24,-5 5,-5 2.76,0 5,2.24 5,5 z"
         style="fill:#5e5e5e;fill-rule:evenodd;stroke:#5e5e5e;stroke-width:1pt"
         transform="matrix(0.2,0,0,0.2,1.48,0.2)"
         inkscape:connector-curvature="0" />
    </marker>
    <marker
       inkscape:stockid="DotSL"
       orient="auto"
       refY="0"
       refX="0"
       id="DotSL"
       style="overflow:visible">
      <path
         id="path6893"
         d="m -2.5,-1 c 0,2.76 -2.24,5 -5,5 -2.76,0 -5,-2.24 -5,-5 0,-2.76 2.24,-5 5,-5 2.76,0 5,2.24 5,5 z"
         style="fill:#5e5e5e;fill-rule:evenodd;stroke:#5e5e5e;stroke-width:1pt"
         transform="matrix(0.2,0,0,0.2,1.48,0.2)"
         inkscape:connector-curvature="0" />
    </marker>
    <marker
       inkscape:stockid="DotSq"
       orient="auto"
       refY="0"
       refX="0"
       id="DotSq"
       style="overflow:visible">
      <path
         id="path6896"
         d="m -2.5,-1 c 0,2.76 -2.24,5 -5,5 -2.76,0 -5,-2.24 -5,-5 0,-2.76 2.24,-5 5,-5 2.76,0 5,2.24 5,5 z"
         style="fill:#5e5e5e;fill-rule:evenodd;stroke:#5e5e5e;stroke-width:1pt"
         transform="matrix(0.2,0,0,0.2,1.48,0.2)"
         inkscape:connector-curvature="0" />
    </marker>
  </defs>
  <metadata
     id="metadata3174">
    <rdf:RDF>
      <cc:Work
         rdf:about="">
        <dc:format>image/svg+xml</dc:format>
        <dc:type
           rdf:resource="http://purl.org/dc/dcmitype/StillImage" />
        <dc:title></dc:title>
      </cc:Work>
    </rdf:RDF>
  </metadata>
  <g
     inkscape:label="Layer 1"
     inkscape:groupmode="layer"
     id="layer1"
     transform="translate(2.5240561,0.71169391)">
    <rect
       style="fill:#a9d4f8;fill-opacity:1;stroke:#418ccb;stroke-width:2;stroke-miterlimit:2.9000001;stroke-opacity:1;stroke-dasharray:none"
       id="rect3177"
       width="500.53058"
       height="303.04578"
       x="0.50507629"
       y="0.28830609"
       rx="34.099998" />
    <rect
       style="fill:#59ff5b;fill-opacity:1;stroke:#00c404;stroke-width:2;stroke-miterlimit:2.9000001;stroke-opacity:1;stroke-dasharray:none"
       id="rect3177-0"
       width="161.6244"
       height="104.5508"
       x="64.397232"
       y="35.643642"
       rx="11.0111" />
    <path
       style="fill:none;stroke:#5e5e5e;stroke-width:3;stroke-linecap:butt;stroke-linejoin:miter;stroke-miterlimit:1.89999998;stroke-opacity:1;stroke-dasharray:none;marker-start:url(#DotSv);marker-end:url(#DotS9)"
       d="m 1.5152285,83.625888 63.0638835,0"
       id="path3947"
       inkscape:connector-curvature="0" />
    <rect
       style="fill:#59ff5b;fill-opacity:1;stroke:#00c404;stroke-width:2;stroke-miterlimit:2.9000001;stroke-opacity:1;stroke-dasharray:none"
       id="rect3177-0-5"
       width="161.6244"
       height="104.5508"
       x="277.79196"
       y="153.57895"
       rx="11.0111" />
    <path
       style="fill:none;stroke:#5e5e5e;stroke-width:3;stroke-linecap:butt;stroke-linejoin:miter;stroke-miterlimit:1.89999998;stroke-opacity:1;stroke-dasharray:none;marker-start:url(#DotSv);marker-end:url(#DotS9)"
       d="m 0.91094387,219.49141 276.65314613,0"
       id="path3947-8"
       inkscape:connector-curvature="0" />
    <path
       style="fill:none;stroke:#5e5e5e;stroke-width:3;stroke-linecap:butt;stroke-linejoin:miter;stroke-miterlimit:1.89999998;stroke-opacity:1;stroke-dasharray:none;marker-start:url(#DotSv);marker-end:url(#DotS9)"
       d="m 226.15584,104.33401 274.66183,0"
       id="path3947-8-7-0"
       inkscape:connector-curvature="0" />
    <path
       style="fill:none;stroke:#5e5e5e;stroke-width:3;stroke-linecap:butt;stroke-linejoin:miter;stroke-miterlimit:1.89999998;stroke-opacity:1;stroke-dasharray:none;marker-start:url(#DotSv);marker-end:url(#DotS9)"
       d="m 225.92959,67.463454 275.60682,0"
       id="path3947-8-5"
       inkscape:connector-curvature="0" />
    <path
       inkscape:connector-curvature="0"
       id="path6193"
       d="m 249.05439,104.78951 0.35479,87.20597 28.38277,0"
       style="fill:none;stroke:#5e5e5e;stroke-width:2.86479807;stroke-linecap:butt;stroke-linejoin:miter;stroke-miterlimit:4;stroke-opacity:1;stroke-dasharray:none;marker-start:url(#DotSL);marker-end:url(#DotSq)" />
    <path
       style="fill:none;stroke:#5e5e5e;stroke-width:2.94972897;stroke-linecap:butt;stroke-linejoin:miter;stroke-miterlimit:1.89999998;stroke-opacity:1;stroke-dasharray:none;marker-start:url(#DotSv);marker-end:url(#DotS9)"
       d="m 439.33466,206.8645 60.96806,0"
       id="path3947-6"
       inkscape:connector-curvature="0" />
    <text
       xml:space="preserve"
       style="font-size:40px;font-style:normal;font-weight:normal;line-height:125%;letter-spacing:0px;word-spacing:0px;fill:#009718;fill-opacity:1;stroke:none;font-family:Sans"
       x="94.449265"
       y="79.585274"
       id="text6959"
       sodipodi:linespacing="125%"><tspan
         sodipodi:role="line"
         id="tspan6961"
         x="94.449265"
         y="79.585274"
         style="font-size:28px;line-height:125%">Filter_0</tspan></text>
    <text
       xml:space="preserve"
       style="font-size:40px;font-style:normal;font-weight:normal;line-height:125%;letter-spacing:0px;word-spacing:0px;fill:#009718;fill-opacity:1;stroke:none;font-family:Sans"
       x="307.55338"
       y="198.5421"
       id="text6959-4"
       sodipodi:linespacing="125%"><tspan
         sodipodi:role="line"
         id="tspan6961-1"
         x="307.55338"
         y="198.5421"
         style="font-size:28px;line-height:125%">Filter_1</tspan></text>
    <text
       xml:space="preserve"
       style="font-size:40px;font-style:normal;font-weight:normal;line-height:125%;letter-spacing:0px;word-spacing:0px;fill:#009718;fill-opacity:1;stroke:none;font-family:Sans"
       x="79.763969"
       y="111.66898"
       id="text6959-6"
       sodipodi:linespacing="125%"><tspan
         sodipodi:role="line"
         id="tspan6961-16"
         x="79.763969"
         y="111.66898"
         style="font-size:14px;line-height:125%">FragmentShader_0</tspan></text>
    <text
       xml:space="preserve"
       style="font-size:40px;font-style:normal;font-weight:normal;line-height:125%;letter-spacing:0px;word-spacing:0px;fill:#009718;fill-opacity:1;stroke:none;font-family:Sans"
       x="292.65024"
       y="231.24011"
       id="text6959-6-5"
       sodipodi:linespacing="125%"><tspan
         sodipodi:role="line"
         id="tspan6961-16-6"
         x="292.65024"
         y="231.24011"
         style="font-size:14px;line-height:125%">FragmentShader_1</tspan></text>
    <text
       xml:space="preserve"
       style="font-size:40px;font-style:normal;font-weight:normal;line-height:125%;letter-spacing:0px;word-spacing:0px;fill:#0d01a2;fill-opacity:1;stroke:none;font-family:Sans"
       x="32.286804"
       y="25.30094"
       id="text6959-5"
       sodipodi:linespacing="125%"
       inkscape:transform-center-x="-73.741136"
       inkscape:transform-center-y="52.527932"><tspan
         sodipodi:role="line"
         id="tspan6961-4"
         x="32.286804"
         y="25.30094"
         style="font-size:24px;line-height:125%;fill:#0d01a2;fill-opacity:1">Pipeline</tspan></text>
  </g>
</svg>
