<?xml version="1.0" encoding="UTF-8" standalone="no"?>
<!-- Created with Inkscape (http://www.inkscape.org/) -->

<svg
   xmlns:dc="http://purl.org/dc/elements/1.1/"
   xmlns:cc="http://creativecommons.org/ns#"
   xmlns:rdf="http://www.w3.org/1999/02/22-rdf-syntax-ns#"
   xmlns:svg="http://www.w3.org/2000/svg"
   xmlns="http://www.w3.org/2000/svg"
   xmlns:sodipodi="http://sodipodi.sourceforge.net/DTD/sodipodi-0.dtd"
   xmlns:inkscape="http://www.inkscape.org/namespaces/inkscape"
   width="707.91748"
   height="386.92981"
   id="svg3169"
   version="1.1"
   inkscape:version="0.48.3.1 r9886"
   sodipodi:docname="exampleGOLPipelines.svg">
  <sodipodi:namedview
     id="base"
     pagecolor="#ffffff"
     bordercolor="#666666"
     borderopacity="1.0"
     inkscape:pageopacity="0.0"
     inkscape:pageshadow="2"
     inkscape:zoom="1.4"
     inkscape:cx="409.05953"
     inkscape:cy="121.76366"
     inkscape:document-units="px"
     inkscape:current-layer="layer1"
     showgrid="false"
     inkscape:window-width="1920"
     inkscape:window-height="1123"
     inkscape:window-x="0"
     inkscape:window-y="24"
     inkscape:window-maximized="1"
     fit-margin-top="0"
     fit-margin-left="0"
     fit-margin-right="0"
     fit-margin-bottom="0" />
  <defs
     id="defs3171">
    <marker
       style="overflow:visible"
       id="Arrow1Mend"
       refX="0"
       refY="0"
       orient="auto"
       inkscape:stockid="Arrow1Mend">
      <path
         transform="matrix(-0.4,0,0,-0.4,-4,0)"
         style="fill-rule:evenodd;stroke:#000000;stroke-width:1pt"
         d="M 0,0 5,-5 -12.5,0 5,5 0,0 z"
         id="path4948"
         inkscape:connector-curvature="0" />
    </marker>
    <marker
       style="overflow:visible"
       id="Arrow2Lstart"
       refX="0"
       refY="0"
       orient="auto"
       inkscape:stockid="Arrow2Lstart">
      <path
         transform="matrix(1.1,0,0,1.1,1.1,0)"
         d="M 8.7185878,4.0337352 -2.2072895,0.01601326 8.7185884,-4.0017078 c -1.7454984,2.3720609 -1.7354408,5.6174519 -6e-7,8.035443 z"
         style="fill-rule:evenodd;stroke-width:0.625;stroke-linejoin:round"
         id="path4957"
         inkscape:connector-curvature="0" />
    </marker>
    <marker
       style="overflow:visible"
       id="Arrow2Sstart"
       refX="0"
       refY="0"
       orient="auto"
       inkscape:stockid="Arrow2Sstart">
      <path
         transform="matrix(0.3,0,0,0.3,-0.69,0)"
         d="M 8.7185878,4.0337352 -2.2072895,0.01601326 8.7185884,-4.0017078 c -1.7454984,2.3720609 -1.7354408,5.6174519 -6e-7,8.035443 z"
         style="fill-rule:evenodd;stroke-width:0.625;stroke-linejoin:round"
         id="path4969"
         inkscape:connector-curvature="0" />
    </marker>
    <marker
       style="overflow:visible"
       id="TriangleInM"
       refX="0"
       refY="0"
       orient="auto"
       inkscape:stockid="TriangleInM">
      <path
         transform="scale(-0.4,-0.4)"
         style="fill-rule:evenodd;stroke:#000000;stroke-width:1pt"
         d="m 5.77,0 -8.65,5 0,-10 8.65,5 z"
         id="path5075"
         inkscape:connector-curvature="0" />
    </marker>
    <marker
       inkscape:stockid="DotM"
       orient="auto"
       refY="0"
       refX="0"
       id="DotM"
       style="overflow:visible">
      <path
         id="path4197"
         d="m -2.5,-1 c 0,2.76 -2.24,5 -5,5 -2.76,0 -5,-2.24 -5,-5 0,-2.76 2.24,-5 5,-5 2.76,0 5,2.24 5,5 z"
         style="fill-rule:evenodd;stroke:#000000;stroke-width:1pt"
         transform="matrix(0.4,0,0,0.4,2.96,0.4)"
         inkscape:connector-curvature="0" />
    </marker>
    <marker
       inkscape:stockid="DotS"
       orient="auto"
       refY="0"
       refX="0"
       id="DotS"
       style="overflow:visible">
      <path
         id="path4200"
         d="m -2.5,-1 c 0,2.76 -2.24,5 -5,5 -2.76,0 -5,-2.24 -5,-5 0,-2.76 2.24,-5 5,-5 2.76,0 5,2.24 5,5 z"
         style="fill-rule:evenodd;stroke:#000000;stroke-width:1pt"
         transform="matrix(0.2,0,0,0.2,1.48,0.2)"
         inkscape:connector-curvature="0" />
    </marker>
    <marker
       inkscape:stockid="DotL"
       orient="auto"
       refY="0"
       refX="0"
       id="DotL"
       style="overflow:visible">
      <path
         id="path4194"
         d="m -2.5,-1 c 0,2.76 -2.24,5 -5,5 -2.76,0 -5,-2.24 -5,-5 0,-2.76 2.24,-5 5,-5 2.76,0 5,2.24 5,5 z"
         style="fill-rule:evenodd;stroke:#000000;stroke-width:1pt"
         transform="matrix(0.8,0,0,0.8,5.92,0.8)"
         inkscape:connector-curvature="0" />
    </marker>
    <marker
       inkscape:stockid="DotSv"
       orient="auto"
       refY="0"
       refX="0"
       id="DotSv"
       style="overflow:visible">
      <path
         id="path5142"
         d="m -2.5,-1 c 0,2.76 -2.24,5 -5,5 -2.76,0 -5,-2.24 -5,-5 0,-2.76 2.24,-5 5,-5 2.76,0 5,2.24 5,5 z"
         style="fill:#5e5e5e;fill-rule:evenodd;stroke:#5e5e5e;stroke-width:1pt"
         transform="matrix(0.2,0,0,0.2,1.48,0.2)"
         inkscape:connector-curvature="0" />
    </marker>
    <marker
       inkscape:stockid="DotS9"
       orient="auto"
       refY="0"
       refX="0"
       id="DotS9"
       style="overflow:visible">
      <path
         id="path5145"
         d="m -2.5,-1 c 0,2.76 -2.24,5 -5,5 -2.76,0 -5,-2.24 -5,-5 0,-2.76 2.24,-5 5,-5 2.76,0 5,2.24 5,5 z"
         style="fill:#5e5e5e;fill-rule:evenodd;stroke:#5e5e5e;stroke-width:1pt"
         transform="matrix(0.2,0,0,0.2,1.48,0.2)"
         inkscape:connector-curvature="0" />
    </marker>
    <marker
       inkscape:stockid="DotSv"
       orient="auto"
       refY="0"
       refX="0"
       id="DotSv-1"
       style="overflow:visible">
      <path
         id="path5142-3"
         d="m -2.5,-1 c 0,2.76 -2.24,5 -5,5 -2.76,0 -5,-2.24 -5,-5 0,-2.76 2.24,-5 5,-5 2.76,0 5,2.24 5,5 z"
         style="fill:#5e5e5e;fill-rule:evenodd;stroke:#5e5e5e;stroke-width:1pt"
         transform="matrix(0.2,0,0,0.2,1.48,0.2)"
         inkscape:connector-curvature="0" />
    </marker>
    <marker
       inkscape:stockid="DotS9"
       orient="auto"
       refY="0"
       refX="0"
       id="DotS9-6"
       style="overflow:visible">
      <path
         id="path5145-1"
         d="m -2.5,-1 c 0,2.76 -2.24,5 -5,5 -2.76,0 -5,-2.24 -5,-5 0,-2.76 2.24,-5 5,-5 2.76,0 5,2.24 5,5 z"
         style="fill:#5e5e5e;fill-rule:evenodd;stroke:#5e5e5e;stroke-width:1pt"
         transform="matrix(0.2,0,0,0.2,1.48,0.2)"
         inkscape:connector-curvature="0" />
    </marker>
    <marker
       inkscape:stockid="DotSv"
       orient="auto"
       refY="0"
       refX="0"
       id="DotSv-3"
       style="overflow:visible">
      <path
         id="path5142-8"
         d="m -2.5,-1 c 0,2.76 -2.24,5 -5,5 -2.76,0 -5,-2.24 -5,-5 0,-2.76 2.24,-5 5,-5 2.76,0 5,2.24 5,5 z"
         style="fill:#5e5e5e;fill-rule:evenodd;stroke:#5e5e5e;stroke-width:1pt"
         transform="matrix(0.2,0,0,0.2,1.48,0.2)"
         inkscape:connector-curvature="0" />
    </marker>
    <marker
       inkscape:stockid="DotS9"
       orient="auto"
       refY="0"
       refX="0"
       id="DotS9-4"
       style="overflow:visible">
      <path
         id="path5145-4"
         d="m -2.5,-1 c 0,2.76 -2.24,5 -5,5 -2.76,0 -5,-2.24 -5,-5 0,-2.76 2.24,-5 5,-5 2.76,0 5,2.24 5,5 z"
         style="fill:#5e5e5e;fill-rule:evenodd;stroke:#5e5e5e;stroke-width:1pt"
         transform="matrix(0.2,0,0,0.2,1.48,0.2)"
         inkscape:connector-curvature="0" />
    </marker>
    <marker
       inkscape:stockid="DotSv"
       orient="auto"
       refY="0"
       refX="0"
       id="DotSv-5"
       style="overflow:visible">
      <path
         id="path5142-39"
         d="m -2.5,-1 c 0,2.76 -2.24,5 -5,5 -2.76,0 -5,-2.24 -5,-5 0,-2.76 2.24,-5 5,-5 2.76,0 5,2.24 5,5 z"
         style="fill:#5e5e5e;fill-rule:evenodd;stroke:#5e5e5e;stroke-width:1pt"
         transform="matrix(0.2,0,0,0.2,1.48,0.2)"
         inkscape:connector-curvature="0" />
    </marker>
    <marker
       inkscape:stockid="DotS9"
       orient="auto"
       refY="0"
       refX="0"
       id="DotS9-5"
       style="overflow:visible">
      <path
         id="path5145-7"
         d="m -2.5,-1 c 0,2.76 -2.24,5 -5,5 -2.76,0 -5,-2.24 -5,-5 0,-2.76 2.24,-5 5,-5 2.76,0 5,2.24 5,5 z"
         style="fill:#5e5e5e;fill-rule:evenodd;stroke:#5e5e5e;stroke-width:1pt"
         transform="matrix(0.2,0,0,0.2,1.48,0.2)"
         inkscape:connector-curvature="0" />
    </marker>
    <marker
       inkscape:stockid="DotSv"
       orient="auto"
       refY="0"
       refX="0"
       id="DotSv-34"
       style="overflow:visible">
      <path
         id="path5142-4"
         d="m -2.5,-1 c 0,2.76 -2.24,5 -5,5 -2.76,0 -5,-2.24 -5,-5 0,-2.76 2.24,-5 5,-5 2.76,0 5,2.24 5,5 z"
         style="fill:#5e5e5e;fill-rule:evenodd;stroke:#5e5e5e;stroke-width:1pt"
         transform="matrix(0.2,0,0,0.2,1.48,0.2)"
         inkscape:connector-curvature="0" />
    </marker>
    <marker
       inkscape:stockid="DotS9"
       orient="auto"
       refY="0"
       refX="0"
       id="DotS9-51"
       style="overflow:visible">
      <path
         id="path5145-15"
         d="m -2.5,-1 c 0,2.76 -2.24,5 -5,5 -2.76,0 -5,-2.24 -5,-5 0,-2.76 2.24,-5 5,-5 2.76,0 5,2.24 5,5 z"
         style="fill:#5e5e5e;fill-rule:evenodd;stroke:#5e5e5e;stroke-width:1pt"
         transform="matrix(0.2,0,0,0.2,1.48,0.2)"
         inkscape:connector-curvature="0" />
    </marker>
    <marker
       inkscape:stockid="DotSv"
       orient="auto"
       refY="0"
       refX="0"
       id="DotSv-9"
       style="overflow:visible">
      <path
         id="path5142-44"
         d="m -2.5,-1 c 0,2.76 -2.24,5 -5,5 -2.76,0 -5,-2.24 -5,-5 0,-2.76 2.24,-5 5,-5 2.76,0 5,2.24 5,5 z"
         style="fill:#5e5e5e;fill-rule:evenodd;stroke:#5e5e5e;stroke-width:1pt"
         transform="matrix(0.2,0,0,0.2,1.48,0.2)"
         inkscape:connector-curvature="0" />
    </marker>
    <marker
       inkscape:stockid="DotS9"
       orient="auto"
       refY="0"
       refX="0"
       id="DotS9-9"
       style="overflow:visible">
      <path
         id="path5145-16"
         d="m -2.5,-1 c 0,2.76 -2.24,5 -5,5 -2.76,0 -5,-2.24 -5,-5 0,-2.76 2.24,-5 5,-5 2.76,0 5,2.24 5,5 z"
         style="fill:#5e5e5e;fill-rule:evenodd;stroke:#5e5e5e;stroke-width:1pt"
         transform="matrix(0.2,0,0,0.2,1.48,0.2)"
         inkscape:connector-curvature="0" />
    </marker>
    <marker
       inkscape:stockid="DotSv"
       orient="auto"
       refY="0"
       refX="0"
       id="DotSv-30"
       style="overflow:visible">
      <path
         id="path5142-36"
         d="m -2.5,-1 c 0,2.76 -2.24,5 -5,5 -2.76,0 -5,-2.24 -5,-5 0,-2.76 2.24,-5 5,-5 2.76,0 5,2.24 5,5 z"
         style="fill:#5e5e5e;fill-rule:evenodd;stroke:#5e5e5e;stroke-width:1pt"
         transform="matrix(0.2,0,0,0.2,1.48,0.2)"
         inkscape:connector-curvature="0" />
    </marker>
    <marker
       inkscape:stockid="DotS9"
       orient="auto"
       refY="0"
       refX="0"
       id="DotS9-8"
       style="overflow:visible">
      <path
         id="path5145-6"
         d="m -2.5,-1 c 0,2.76 -2.24,5 -5,5 -2.76,0 -5,-2.24 -5,-5 0,-2.76 2.24,-5 5,-5 2.76,0 5,2.24 5,5 z"
         style="fill:#5e5e5e;fill-rule:evenodd;stroke:#5e5e5e;stroke-width:1pt"
         transform="matrix(0.2,0,0,0.2,1.48,0.2)"
         inkscape:connector-curvature="0" />
    </marker>
    <marker
       inkscape:stockid="DotSL"
       orient="auto"
       refY="0"
       refX="0"
       id="DotSL"
       style="overflow:visible">
      <path
         id="path6893"
         d="m -2.5,-1 c 0,2.76 -2.24,5 -5,5 -2.76,0 -5,-2.24 -5,-5 0,-2.76 2.24,-5 5,-5 2.76,0 5,2.24 5,5 z"
         style="fill:#5e5e5e;fill-rule:evenodd;stroke:#5e5e5e;stroke-width:1pt"
         transform="matrix(0.2,0,0,0.2,1.48,0.2)"
         inkscape:connector-curvature="0" />
    </marker>
    <marker
       inkscape:stockid="DotSq"
       orient="auto"
       refY="0"
       refX="0"
       id="DotSq"
       style="overflow:visible">
      <path
         id="path6896"
         d="m -2.5,-1 c 0,2.76 -2.24,5 -5,5 -2.76,0 -5,-2.24 -5,-5 0,-2.76 2.24,-5 5,-5 2.76,0 5,2.24 5,5 z"
         style="fill:#5e5e5e;fill-rule:evenodd;stroke:#5e5e5e;stroke-width:1pt"
         transform="matrix(0.2,0,0,0.2,1.48,0.2)"
         inkscape:connector-curvature="0" />
    </marker>
    <marker
       inkscape:stockid="DotSv"
       orient="auto"
       refY="0"
       refX="0"
       id="DotSv-35"
       style="overflow:visible">
      <path
         id="path5142-9"
         d="m -2.5,-1 c 0,2.76 -2.24,5 -5,5 -2.76,0 -5,-2.24 -5,-5 0,-2.76 2.24,-5 5,-5 2.76,0 5,2.24 5,5 z"
         style="fill:#5e5e5e;fill-rule:evenodd;stroke:#5e5e5e;stroke-width:1pt"
         transform="matrix(0.2,0,0,0.2,1.48,0.2)"
         inkscape:connector-curvature="0" />
    </marker>
    <marker
       inkscape:stockid="DotS9"
       orient="auto"
       refY="0"
       refX="0"
       id="DotS9-3"
       style="overflow:visible">
      <path
         id="path5145-77"
         d="m -2.5,-1 c 0,2.76 -2.24,5 -5,5 -2.76,0 -5,-2.24 -5,-5 0,-2.76 2.24,-5 5,-5 2.76,0 5,2.24 5,5 z"
         style="fill:#5e5e5e;fill-rule:evenodd;stroke:#5e5e5e;stroke-width:1pt"
         transform="matrix(0.2,0,0,0.2,1.48,0.2)"
         inkscape:connector-curvature="0" />
    </marker>
    <marker
       inkscape:stockid="DotSv"
       orient="auto"
       refY="0"
       refX="0"
       id="marker3954"
       style="overflow:visible">
      <path
         id="path3956"
         d="m -2.5,-1 c 0,2.76 -2.24,5 -5,5 -2.76,0 -5,-2.24 -5,-5 0,-2.76 2.24,-5 5,-5 2.76,0 5,2.24 5,5 z"
         style="fill:#5e5e5e;fill-rule:evenodd;stroke:#5e5e5e;stroke-width:1pt"
         transform="matrix(0.2,0,0,0.2,1.48,0.2)"
         inkscape:connector-curvature="0" />
    </marker>
    <marker
       inkscape:stockid="DotS9"
       orient="auto"
       refY="0"
       refX="0"
       id="marker3958"
       style="overflow:visible">
      <path
         id="path3960"
         d="m -2.5,-1 c 0,2.76 -2.24,5 -5,5 -2.76,0 -5,-2.24 -5,-5 0,-2.76 2.24,-5 5,-5 2.76,0 5,2.24 5,5 z"
         style="fill:#5e5e5e;fill-rule:evenodd;stroke:#5e5e5e;stroke-width:1pt"
         transform="matrix(0.2,0,0,0.2,1.48,0.2)"
         inkscape:connector-curvature="0" />
    </marker>
    <marker
       inkscape:stockid="DotSv"
       orient="auto"
       refY="0"
       refX="0"
       id="DotSv-12"
       style="overflow:visible">
      <path
         id="path5142-30"
         d="m -2.5,-1 c 0,2.76 -2.24,5 -5,5 -2.76,0 -5,-2.24 -5,-5 0,-2.76 2.24,-5 5,-5 2.76,0 5,2.24 5,5 z"
         style="fill:#5e5e5e;fill-rule:evenodd;stroke:#5e5e5e;stroke-width:1pt"
         transform="matrix(0.2,0,0,0.2,1.48,0.2)"
         inkscape:connector-curvature="0" />
    </marker>
    <marker
       inkscape:stockid="DotS9"
       orient="auto"
       refY="0"
       refX="0"
       id="DotS9-89"
       style="overflow:visible">
      <path
         id="path5145-0"
         d="m -2.5,-1 c 0,2.76 -2.24,5 -5,5 -2.76,0 -5,-2.24 -5,-5 0,-2.76 2.24,-5 5,-5 2.76,0 5,2.24 5,5 z"
         style="fill:#5e5e5e;fill-rule:evenodd;stroke:#5e5e5e;stroke-width:1pt"
         transform="matrix(0.2,0,0,0.2,1.48,0.2)"
         inkscape:connector-curvature="0" />
    </marker>
    <marker
       inkscape:stockid="DotSv"
       orient="auto"
       refY="0"
       refX="0"
       id="DotSv-54"
       style="overflow:visible">
      <path
         id="path5142-82"
         d="m -2.5,-1 c 0,2.76 -2.24,5 -5,5 -2.76,0 -5,-2.24 -5,-5 0,-2.76 2.24,-5 5,-5 2.76,0 5,2.24 5,5 z"
         style="fill:#5e5e5e;fill-rule:evenodd;stroke:#5e5e5e;stroke-width:1pt"
         transform="matrix(0.2,0,0,0.2,1.48,0.2)"
         inkscape:connector-curvature="0" />
    </marker>
    <marker
       inkscape:stockid="DotS9"
       orient="auto"
       refY="0"
       refX="0"
       id="DotS9-99"
       style="overflow:visible">
      <path
         id="path5145-14"
         d="m -2.5,-1 c 0,2.76 -2.24,5 -5,5 -2.76,0 -5,-2.24 -5,-5 0,-2.76 2.24,-5 5,-5 2.76,0 5,2.24 5,5 z"
         style="fill:#5e5e5e;fill-rule:evenodd;stroke:#5e5e5e;stroke-width:1pt"
         transform="matrix(0.2,0,0,0.2,1.48,0.2)"
         inkscape:connector-curvature="0" />
    </marker>
    <marker
       inkscape:stockid="DotSv"
       orient="auto"
       refY="0"
       refX="0"
       id="DotSv-0"
       style="overflow:visible">
      <path
         id="path5142-7"
         d="m -2.5,-1 c 0,2.76 -2.24,5 -5,5 -2.76,0 -5,-2.24 -5,-5 0,-2.76 2.24,-5 5,-5 2.76,0 5,2.24 5,5 z"
         style="fill:#5e5e5e;fill-rule:evenodd;stroke:#5e5e5e;stroke-width:1pt"
         transform="matrix(0.2,0,0,0.2,1.48,0.2)"
         inkscape:connector-curvature="0" />
    </marker>
    <marker
       inkscape:stockid="DotS9"
       orient="auto"
       refY="0"
       refX="0"
       id="DotS9-37"
       style="overflow:visible">
      <path
         id="path5145-78"
         d="m -2.5,-1 c 0,2.76 -2.24,5 -5,5 -2.76,0 -5,-2.24 -5,-5 0,-2.76 2.24,-5 5,-5 2.76,0 5,2.24 5,5 z"
         style="fill:#5e5e5e;fill-rule:evenodd;stroke:#5e5e5e;stroke-width:1pt"
         transform="matrix(0.2,0,0,0.2,1.48,0.2)"
         inkscape:connector-curvature="0" />
    </marker>
    <marker
       inkscape:stockid="DotSv"
       orient="auto"
       refY="0"
       refX="0"
       id="DotSv-7"
       style="overflow:visible">
      <path
         id="path5142-6"
         d="m -2.5,-1 c 0,2.76 -2.24,5 -5,5 -2.76,0 -5,-2.24 -5,-5 0,-2.76 2.24,-5 5,-5 2.76,0 5,2.24 5,5 z"
         style="fill:#5e5e5e;fill-rule:evenodd;stroke:#5e5e5e;stroke-width:1pt"
         transform="matrix(0.2,0,0,0.2,1.48,0.2)"
         inkscape:connector-curvature="0" />
    </marker>
    <marker
       inkscape:stockid="DotS9"
       orient="auto"
       refY="0"
       refX="0"
       id="DotS9-82"
       style="overflow:visible">
      <path
         id="path5145-49"
         d="m -2.5,-1 c 0,2.76 -2.24,5 -5,5 -2.76,0 -5,-2.24 -5,-5 0,-2.76 2.24,-5 5,-5 2.76,0 5,2.24 5,5 z"
         style="fill:#5e5e5e;fill-rule:evenodd;stroke:#5e5e5e;stroke-width:1pt"
         transform="matrix(0.2,0,0,0.2,1.48,0.2)"
         inkscape:connector-curvature="0" />
    </marker>
    <marker
       inkscape:stockid="DotSv"
       orient="auto"
       refY="0"
       refX="0"
       id="DotSv-8"
       style="overflow:visible">
      <path
         id="path5142-398"
         d="m -2.5,-1 c 0,2.76 -2.24,5 -5,5 -2.76,0 -5,-2.24 -5,-5 0,-2.76 2.24,-5 5,-5 2.76,0 5,2.24 5,5 z"
         style="fill:#5e5e5e;fill-rule:evenodd;stroke:#5e5e5e;stroke-width:1pt"
         transform="matrix(0.2,0,0,0.2,1.48,0.2)"
         inkscape:connector-curvature="0" />
    </marker>
    <marker
       inkscape:stockid="DotS9"
       orient="auto"
       refY="0"
       refX="0"
       id="DotS9-39"
       style="overflow:visible">
      <path
         id="path5145-8"
         d="m -2.5,-1 c 0,2.76 -2.24,5 -5,5 -2.76,0 -5,-2.24 -5,-5 0,-2.76 2.24,-5 5,-5 2.76,0 5,2.24 5,5 z"
         style="fill:#5e5e5e;fill-rule:evenodd;stroke:#5e5e5e;stroke-width:1pt"
         transform="matrix(0.2,0,0,0.2,1.48,0.2)"
         inkscape:connector-curvature="0" />
    </marker>
    <marker
       inkscape:stockid="DotSv"
       orient="auto"
       refY="0"
       refX="0"
       id="DotSv-4"
       style="overflow:visible">
      <path
         id="path5142-42"
         d="m -2.5,-1 c 0,2.76 -2.24,5 -5,5 -2.76,0 -5,-2.24 -5,-5 0,-2.76 2.24,-5 5,-5 2.76,0 5,2.24 5,5 z"
         style="fill:#5e5e5e;fill-rule:evenodd;stroke:#5e5e5e;stroke-width:1pt"
         transform="matrix(0.2,0,0,0.2,1.48,0.2)"
         inkscape:connector-curvature="0" />
    </marker>
    <marker
       inkscape:stockid="DotS9"
       orient="auto"
       refY="0"
       refX="0"
       id="DotS9-84"
       style="overflow:visible">
      <path
         id="path5145-2"
         d="m -2.5,-1 c 0,2.76 -2.24,5 -5,5 -2.76,0 -5,-2.24 -5,-5 0,-2.76 2.24,-5 5,-5 2.76,0 5,2.24 5,5 z"
         style="fill:#5e5e5e;fill-rule:evenodd;stroke:#5e5e5e;stroke-width:1pt"
         transform="matrix(0.2,0,0,0.2,1.48,0.2)"
         inkscape:connector-curvature="0" />
    </marker>
    <marker
       inkscape:stockid="DotST"
       orient="auto"
       refY="0"
       refX="0"
       id="DotST"
       style="overflow:visible">
      <path
         id="path4771"
         d="m -2.5,-1 c 0,2.76 -2.24,5 -5,5 -2.76,0 -5,-2.24 -5,-5 0,-2.76 2.24,-5 5,-5 2.76,0 5,2.24 5,5 z"
         style="fill:#5e5e5e;fill-rule:evenodd;stroke:#5e5e5e;stroke-width:1pt"
         transform="matrix(0.2,0,0,0.2,1.48,0.2)"
         inkscape:connector-curvature="0" />
    </marker>
    <marker
       inkscape:stockid="DotSH"
       orient="auto"
       refY="0"
       refX="0"
       id="DotSH"
       style="overflow:visible">
      <path
         id="path4774"
         d="m -2.5,-1 c 0,2.76 -2.24,5 -5,5 -2.76,0 -5,-2.24 -5,-5 0,-2.76 2.24,-5 5,-5 2.76,0 5,2.24 5,5 z"
         style="fill:#5e5e5e;fill-rule:evenodd;stroke:#5e5e5e;stroke-width:1pt"
         transform="matrix(0.2,0,0,0.2,1.48,0.2)"
         inkscape:connector-curvature="0" />
    </marker>
    <marker
       inkscape:stockid="DotST"
       orient="auto"
       refY="0"
       refX="0"
       id="DotST-8"
       style="overflow:visible">
      <path
         id="path4771-6"
         d="m -2.5,-1 c 0,2.76 -2.24,5 -5,5 -2.76,0 -5,-2.24 -5,-5 0,-2.76 2.24,-5 5,-5 2.76,0 5,2.24 5,5 z"
         style="fill:#5e5e5e;fill-rule:evenodd;stroke:#5e5e5e;stroke-width:1pt"
         transform="matrix(0.2,0,0,0.2,1.48,0.2)"
         inkscape:connector-curvature="0" />
    </marker>
    <marker
       inkscape:stockid="DotSH"
       orient="auto"
       refY="0"
       refX="0"
       id="DotSH-9"
       style="overflow:visible">
      <path
         id="path4774-6"
         d="m -2.5,-1 c 0,2.76 -2.24,5 -5,5 -2.76,0 -5,-2.24 -5,-5 0,-2.76 2.24,-5 5,-5 2.76,0 5,2.24 5,5 z"
         style="fill:#5e5e5e;fill-rule:evenodd;stroke:#5e5e5e;stroke-width:1pt"
         transform="matrix(0.2,0,0,0.2,1.48,0.2)"
         inkscape:connector-curvature="0" />
    </marker>
    <marker
       style="overflow:visible"
       id="Arrow1Mendq"
       refX="0"
       refY="0"
       orient="auto"
       inkscape:stockid="Arrow1Mendq">
      <path
         transform="matrix(-0.4,0,0,-0.4,-4,0)"
         style="fill:#5e5e5e;fill-rule:evenodd;stroke:#5e5e5e;stroke-width:1pt"
         d="M 0,0 5,-5 -12.5,0 5,5 0,0 z"
         id="path6611"
         inkscape:connector-curvature="0" />
    </marker>
    <marker
       style="overflow:visible"
       id="Arrow1Mendq-7"
       refX="0"
       refY="0"
       orient="auto"
       inkscape:stockid="Arrow1Mendq">
      <path
         inkscape:connector-curvature="0"
         transform="matrix(-0.4,0,0,-0.4,-4,0)"
         style="fill:#5e5e5e;fill-rule:evenodd;stroke:#5e5e5e;stroke-width:1pt"
         d="M 0,0 5,-5 -12.5,0 5,5 0,0 z"
         id="path6611-5" />
    </marker>
    <marker
       style="overflow:visible"
       id="Arrow1Mendq-2"
       refX="0"
       refY="0"
       orient="auto"
       inkscape:stockid="Arrow1Mendq">
      <path
         inkscape:connector-curvature="0"
         transform="matrix(-0.4,0,0,-0.4,-4,0)"
         style="fill:#5e5e5e;fill-rule:evenodd;stroke:#5e5e5e;stroke-width:1pt"
         d="M 0,0 5,-5 -12.5,0 5,5 0,0 z"
         id="path6611-2" />
    </marker>
    <marker
       style="overflow:visible"
       id="Arrow1Mendq-0"
       refX="0"
       refY="0"
       orient="auto"
       inkscape:stockid="Arrow1Mendq">
      <path
         inkscape:connector-curvature="0"
         transform="matrix(-0.4,0,0,-0.4,-4,0)"
         style="fill:#5e5e5e;fill-rule:evenodd;stroke:#5e5e5e;stroke-width:1pt"
         d="M 0,0 5,-5 -12.5,0 5,5 0,0 z"
         id="path6611-4" />
    </marker>
    <marker
       inkscape:stockid="DotSv"
       orient="auto"
       refY="0"
       refX="0"
       id="DotSv-120"
       style="overflow:visible">
      <path
         id="path5142-62"
         d="m -2.5,-1 c 0,2.76 -2.24,5 -5,5 -2.76,0 -5,-2.24 -5,-5 0,-2.76 2.24,-5 5,-5 2.76,0 5,2.24 5,5 z"
         style="fill:#5e5e5e;fill-rule:evenodd;stroke:#5e5e5e;stroke-width:1pt"
         transform="matrix(0.2,0,0,0.2,1.48,0.2)"
         inkscape:connector-curvature="0" />
    </marker>
    <marker
       inkscape:stockid="DotS9"
       orient="auto"
       refY="0"
       refX="0"
       id="DotS9-1"
       style="overflow:visible">
      <path
         id="path5145-01"
         d="m -2.5,-1 c 0,2.76 -2.24,5 -5,5 -2.76,0 -5,-2.24 -5,-5 0,-2.76 2.24,-5 5,-5 2.76,0 5,2.24 5,5 z"
         style="fill:#5e5e5e;fill-rule:evenodd;stroke:#5e5e5e;stroke-width:1pt"
         transform="matrix(0.2,0,0,0.2,1.48,0.2)"
         inkscape:connector-curvature="0" />
    </marker>
    <marker
       inkscape:stockid="DotSv"
       orient="auto"
       refY="0"
       refX="0"
       id="DotSv-47"
       style="overflow:visible">
      <path
         id="path5142-67"
         d="m -2.5,-1 c 0,2.76 -2.24,5 -5,5 -2.76,0 -5,-2.24 -5,-5 0,-2.76 2.24,-5 5,-5 2.76,0 5,2.24 5,5 z"
         style="fill:#5e5e5e;fill-rule:evenodd;stroke:#5e5e5e;stroke-width:1pt"
         transform="matrix(0.2,0,0,0.2,1.48,0.2)"
         inkscape:connector-curvature="0" />
    </marker>
    <marker
       inkscape:stockid="DotS9"
       orient="auto"
       refY="0"
       refX="0"
       id="DotS9-52"
       style="overflow:visible">
      <path
         id="path5145-152"
         d="m -2.5,-1 c 0,2.76 -2.24,5 -5,5 -2.76,0 -5,-2.24 -5,-5 0,-2.76 2.24,-5 5,-5 2.76,0 5,2.24 5,5 z"
         style="fill:#5e5e5e;fill-rule:evenodd;stroke:#5e5e5e;stroke-width:1pt"
         transform="matrix(0.2,0,0,0.2,1.48,0.2)"
         inkscape:connector-curvature="0" />
    </marker>
  </defs>
  <metadata
     id="metadata3174">
    <rdf:RDF>
      <cc:Work
         rdf:about="">
        <dc:format>image/svg+xml</dc:format>
        <dc:type
           rdf:resource="http://purl.org/dc/dcmitype/StillImage" />
        <dc:title />
      </cc:Work>
    </rdf:RDF>
  </metadata>
  <g
     inkscape:label="Layer 1"
     inkscape:groupmode="layer"
     id="layer1"
     transform="translate(69.625697,1.1147446)">
    <rect
       style="fill:#a9d4f8;fill-opacity:1;stroke:#418ccb;stroke-width:2;stroke-miterlimit:2.9000001;stroke-opacity:1;stroke-dasharray:none"
       id="rect3177"
       width="296.78079"
       height="159.95184"
       x="0.10202555"
       y="-0.11474465"
       rx="20.218994" />
    <rect
       style="fill:#59ff5b;fill-opacity:1;stroke:#00c404;stroke-width:2;stroke-miterlimit:2.9000001;stroke-opacity:1;stroke-dasharray:none"
       id="rect3177-0"
       width="161.6244"
       height="104.5508"
       x="64.397232"
       y="35.643642"
       rx="11.0111" />
    <path
       style="fill:none;stroke:#5e5e5e;stroke-width:3;stroke-linecap:butt;stroke-linejoin:miter;stroke-miterlimit:1.89999998;stroke-opacity:1;stroke-dasharray:none;marker-start:url(#DotSv);marker-end:url(#DotS9)"
       d="m 1.5152285,83.625888 63.0638835,0"
       id="path3947"
       inkscape:connector-curvature="0" />
    <path
       style="fill:none;stroke:#5e5e5e;stroke-width:3;stroke-linecap:butt;stroke-linejoin:miter;stroke-miterlimit:1.89999998;stroke-opacity:1;stroke-dasharray:none;marker-start:url(#DotSv);marker-end:url(#DotS9)"
       d="m 226.69755,83.120814 70.71081,0"
       id="path3947-6"
       inkscape:connector-curvature="0" />
    <text
       xml:space="preserve"
       style="font-size:40px;font-style:normal;font-weight:normal;line-height:125%;letter-spacing:0px;word-spacing:0px;fill:#009718;fill-opacity:1;stroke:none;font-family:Sans"
       x="88.893425"
       y="80.090355"
       id="text6959"
       sodipodi:linespacing="125%"><tspan
         sodipodi:role="line"
         id="tspan6961"
         x="88.893425"
         y="80.090355"
         style="font-size:22px;line-height:125%">Filter_GOL</tspan></text>
    <text
       xml:space="preserve"
       style="font-size:40px;font-style:normal;font-weight:normal;line-height:125%;letter-spacing:0px;word-spacing:0px;fill:#009718;fill-opacity:1;stroke:none;font-family:Sans"
       x="90.370567"
       y="112.67914"
       id="text6959-6"
       sodipodi:linespacing="125%"><tspan
         sodipodi:role="line"
         id="tspan6961-16"
         x="90.370567"
         y="112.67914"
         style="font-size:14px;line-height:125%">Fragment_GOL</tspan></text>
    <text
       xml:space="preserve"
       style="font-size:40px;font-style:normal;font-weight:normal;line-height:125%;letter-spacing:0px;word-spacing:0px;fill:#0d01a2;fill-opacity:1;stroke:none;font-family:Sans"
       x="52.99493"
       y="23.785709"
       id="text6959-5"
       sodipodi:linespacing="125%"
       inkscape:transform-center-x="-73.741136"
       inkscape:transform-center-y="52.527932"><tspan
         sodipodi:role="line"
         id="tspan6961-4"
         x="52.99493"
         y="23.785709"
         style="font-size:24px;line-height:125%;fill:#0d01a2;fill-opacity:1">Pipeline_GOL_0</tspan></text>
    <rect
       style="fill:#a9d4f8;fill-opacity:1;stroke:#418ccb;stroke-width:2;stroke-miterlimit:2.9000001;stroke-opacity:1;stroke-dasharray:none"
       id="rect3177-8"
       width="296.78079"
       height="159.95184"
       x="1.2142863"
       y="224.86324"
       rx="20.218994" />
    <rect
       style="fill:#59ff5b;fill-opacity:1;stroke:#00c404;stroke-width:2;stroke-miterlimit:2.9000001;stroke-opacity:1;stroke-dasharray:none"
       id="rect3177-0-4"
       width="161.6244"
       height="104.5508"
       x="65.509483"
       y="260.62161"
       rx="11.0111" />
    <path
       style="fill:none;stroke:#5e5e5e;stroke-width:3;stroke-linecap:butt;stroke-linejoin:miter;stroke-miterlimit:1.89999998;stroke-opacity:1;stroke-dasharray:none;marker-start:url(#DotSv);marker-end:url(#DotS9)"
       d="m 2.6274939,308.60387 63.0638801,0"
       id="path3947-5"
       inkscape:connector-curvature="0" />
    <path
       style="fill:none;stroke:#5e5e5e;stroke-width:3;stroke-linecap:butt;stroke-linejoin:miter;stroke-miterlimit:1.89999998;stroke-opacity:1;stroke-dasharray:none;marker-start:url(#DotSv);marker-end:url(#DotS9)"
       d="m 227.8098,308.0988 70.71081,0"
       id="path3947-6-9"
       inkscape:connector-curvature="0" />
    <text
       xml:space="preserve"
       style="font-size:40px;font-style:normal;font-weight:normal;line-height:125%;letter-spacing:0px;word-spacing:0px;fill:#009718;fill-opacity:1;stroke:none;font-family:Sans"
       x="88.995544"
       y="304.56326"
       id="text6959-8"
       sodipodi:linespacing="125%"><tspan
         sodipodi:role="line"
         id="tspan6961-3"
         x="88.995544"
         y="304.56326"
         style="font-size:22px;line-height:125%">Filter_GOL</tspan></text>
    <text
       xml:space="preserve"
       style="font-size:40px;font-style:normal;font-weight:normal;line-height:125%;letter-spacing:0px;word-spacing:0px;fill:#009718;fill-opacity:1;stroke:none;font-family:Sans"
       x="91.482841"
       y="336.64694"
       id="text6959-6-3"
       sodipodi:linespacing="125%"><tspan
         sodipodi:role="line"
         id="tspan6961-16-8"
         x="91.482841"
         y="336.64694"
         style="font-size:14px;line-height:125%">Fragment_GOL</tspan></text>
    <text
       xml:space="preserve"
       style="font-size:40px;font-style:normal;font-weight:normal;line-height:125%;letter-spacing:0px;word-spacing:0px;fill:#0d01a2;fill-opacity:1;stroke:none;font-family:Sans"
       x="54.107201"
       y="248.76369"
       id="text6959-5-1"
       sodipodi:linespacing="125%"
       inkscape:transform-center-x="-73.741136"
       inkscape:transform-center-y="52.527932"><tspan
         sodipodi:role="line"
         id="tspan6961-4-4"
         x="54.107201"
         y="248.76369"
         style="font-size:24px;line-height:125%;fill:#0d01a2;fill-opacity:1">Pipeline_GOL_1</tspan></text>
    <path
       style="fill:none;stroke:#5e5e5e;stroke-width:3;stroke-linecap:butt;stroke-linejoin:miter;stroke-miterlimit:1.89999998;stroke-opacity:1;stroke-dasharray:9, 3;stroke-dashoffset:0;marker-start:url(#DotSv);marker-end:url(#DotS9)"
       d="m 298.05626,83.110677 112.54441,0"
       id="path3947-6-9-9"
       inkscape:connector-curvature="0" />
    <path
       style="fill:none;stroke:#5e5e5e;stroke-width:3;stroke-linecap:butt;stroke-linejoin:miter;stroke-miterlimit:1.89999998;stroke-opacity:1;stroke-dasharray:9, 3;stroke-dashoffset:0;marker-start:url(#DotSv);marker-end:url(#DotS9)"
       d="m -66.190697,83.615753 67.4709098,0"
       id="path3947-6-9-9-3"
       inkscape:connector-curvature="0" />
    <path
       style="fill:none;stroke:#5e5e5e;stroke-width:3;stroke-linecap:butt;stroke-linejoin:miter;stroke-miterlimit:1.89999998;stroke-opacity:1;stroke-dasharray:9, 3;stroke-dashoffset:0;marker-start:url(#DotSv);marker-end:url(#DotS9)"
       d="m -31.192698,308.37469 34.1798258,0"
       id="path3947-6-9-9-3-2"
       inkscape:connector-curvature="0" />
    <path
       style="fill:none;stroke:#5e5e5e;stroke-width:3;stroke-linecap:butt;stroke-linejoin:miter;stroke-miterlimit:1.89999998;stroke-opacity:1;stroke-dasharray:9, 3;stroke-dashoffset:0;marker-start:url(#DotSv);marker-end:url(#DotS9)"
       d="m 298.85774,308.37469 112.5444,0"
       id="path3947-6-9-9-9"
       inkscape:connector-curvature="0" />
    <path
       style="fill:none;stroke:#5e5e5e;stroke-width:3;stroke-linecap:butt;stroke-linejoin:miter;stroke-miterlimit:4;stroke-opacity:1;stroke-dasharray:9, 3;stroke-dashoffset:0;marker-start:url(#DotST);marker-end:url(#DotSH)"
       d="m 349.5141,83.678713 0,85.127937 -380.827503,48.35669 0,91.67624"
       id="path4195"
       inkscape:connector-curvature="0" />
    <path
       style="fill:none;stroke:#5e5e5e;stroke-width:3;stroke-linecap:butt;stroke-linejoin:miter;stroke-miterlimit:4;stroke-opacity:1;stroke-dasharray:9, 3;stroke-dashoffset:0;marker-start:url(#DotST);marker-mid:none;marker-end:url(#DotSH)"
       d="m -31.313398,83.727324 0,85.127936 380.827498,48.35669 0,91.67624"
       id="path4195-0"
       inkscape:connector-curvature="0" />
    <path
       inkscape:connector-curvature="0"
       id="path6251"
       d="m -31.250847,239.17207 -0.168706,43.44798"
       style="fill:none;stroke:#5e5e5e;stroke-width:3;stroke-linecap:butt;stroke-linejoin:miter;stroke-miterlimit:4;stroke-opacity:1;stroke-dasharray:none;marker-end:url(#Arrow1Mendq)" />
    <path
       inkscape:connector-curvature="0"
       id="path6251-0"
       d="m 349.61292,108.24394 -0.16871,43.44798"
       style="fill:none;stroke:#5e5e5e;stroke-width:3;stroke-linecap:butt;stroke-linejoin:miter;stroke-miterlimit:4;stroke-opacity:1;stroke-dasharray:none;marker-end:url(#Arrow1Mendq)" />
    <path
       inkscape:connector-curvature="0"
       id="path6251-6"
       d="M -31.21459,154.44698 -31.38329,110.999"
       style="fill:none;stroke:#5e5e5e;stroke-width:3;stroke-linecap:butt;stroke-linejoin:miter;stroke-miterlimit:4;stroke-opacity:1;stroke-dasharray:none;marker-end:url(#Arrow1Mendq)" />
    <path
       inkscape:connector-curvature="0"
       id="path6251-6-2"
       d="m 349.61291,286.27188 -0.1687,-43.44798"
       style="fill:none;stroke:#5e5e5e;stroke-width:3;stroke-linecap:butt;stroke-linejoin:miter;stroke-miterlimit:4;stroke-opacity:1;stroke-dasharray:none;marker-end:url(#Arrow1Mendq)" />
    <path
       style="fill:none;stroke:#5e5e5e;stroke-width:3;stroke-linecap:butt;stroke-linejoin:miter;stroke-miterlimit:1.89999998;stroke-opacity:1;stroke-dasharray:9, 3;stroke-dashoffset:0;marker-start:url(#DotSv);marker-end:url(#DotS9)"
       d="m 406.75512,110.1925 76.39879,64.86219"
       id="path3947-6-9-9-1"
       inkscape:connector-curvature="0"
       inkscape:transform-center-x="38.021483"
       inkscape:transform-center-y="-32.280049" />
    <path
       style="fill:none;stroke:#5e5e5e;stroke-width:3;stroke-linecap:butt;stroke-linejoin:miter;stroke-miterlimit:1.89999998;stroke-opacity:1;stroke-dasharray:9, 3;stroke-dashoffset:0;marker-start:url(#DotSv);marker-end:none"
       d="m 483.0862,175.04837 44.53156,0"
       id="path3947-6-9-9-3-9"
       inkscape:connector-curvature="0" />
    <rect
       style="fill:#c6c6c6;fill-opacity:1;stroke:#9d9d9d;stroke-width:2;stroke-miterlimit:2.9000001;stroke-opacity:1;stroke-dasharray:none"
       id="rect3177-0-40"
       width="109.63155"
       height="49.700813"
       x="527.66022"
       y="150.19795"
       rx="7.4689469" />
    <text
       xml:space="preserve"
       style="font-size:40px;font-style:normal;font-weight:normal;line-height:125%;letter-spacing:0px;word-spacing:0px;fill:#000000;fill-opacity:1;stroke:none;font-family:Sans"
       x="533.19019"
       y="183.6198"
       id="text7161"
       sodipodi:linespacing="125%"><tspan
         sodipodi:role="line"
         id="tspan7163"
         x="533.19019"
         y="183.6198"
         style="font-size:28px;fill:#5e5e5e;fill-opacity:1">Screen</tspan></text>
  </g>
</svg>
