<?xml version="1.0" encoding="UTF-8" standalone="no"?>
<!-- Created with Inkscape (http://www.inkscape.org/) -->

<svg
   xmlns:dc="http://purl.org/dc/elements/1.1/"
   xmlns:cc="http://creativecommons.org/ns#"
   xmlns:rdf="http://www.w3.org/1999/02/22-rdf-syntax-ns#"
   xmlns:svg="http://www.w3.org/2000/svg"
   xmlns="http://www.w3.org/2000/svg"
   xmlns:sodipodi="http://sodipodi.sourceforge.net/DTD/sodipodi-0.dtd"
   xmlns:inkscape="http://www.inkscape.org/namespaces/inkscape"
   width="451.91748"
   height="335.24567"
   id="svg3169"
   version="1.1"
   inkscape:version="0.48.3.1 r9886"
   sodipodi:docname="exampleGameOfLifePipeline.svg">
  <sodipodi:namedview
     id="base"
     pagecolor="#ffffff"
     bordercolor="#666666"
     borderopacity="1.0"
     inkscape:pageopacity="0.0"
     inkscape:pageshadow="2"
     inkscape:zoom="1.4"
     inkscape:cx="176.90452"
     inkscape:cy="69.431188"
     inkscape:document-units="px"
     inkscape:current-layer="g4348"
     showgrid="false"
     inkscape:window-width="1920"
     inkscape:window-height="1123"
     inkscape:window-x="0"
     inkscape:window-y="24"
     inkscape:window-maximized="1"
     fit-margin-top="0"
     fit-margin-left="0"
     fit-margin-right="0"
     fit-margin-bottom="0" />
  <defs
     id="defs3171">
    <marker
       style="overflow:visible"
       id="Arrow1Mend"
       refX="0"
       refY="0"
       orient="auto"
       inkscape:stockid="Arrow1Mend">
      <path
         transform="matrix(-0.4,0,0,-0.4,-4,0)"
         style="fill-rule:evenodd;stroke:#000000;stroke-width:1pt"
         d="M 0,0 5,-5 -12.5,0 5,5 0,0 z"
         id="path4948"
         inkscape:connector-curvature="0" />
    </marker>
    <marker
       style="overflow:visible"
       id="Arrow2Lstart"
       refX="0"
       refY="0"
       orient="auto"
       inkscape:stockid="Arrow2Lstart">
      <path
         transform="matrix(1.1,0,0,1.1,1.1,0)"
         d="M 8.7185878,4.0337352 -2.2072895,0.01601326 8.7185884,-4.0017078 c -1.7454984,2.3720609 -1.7354408,5.6174519 -6e-7,8.035443 z"
         style="fill-rule:evenodd;stroke-width:0.625;stroke-linejoin:round"
         id="path4957"
         inkscape:connector-curvature="0" />
    </marker>
    <marker
       style="overflow:visible"
       id="Arrow2Sstart"
       refX="0"
       refY="0"
       orient="auto"
       inkscape:stockid="Arrow2Sstart">
      <path
         transform="matrix(0.3,0,0,0.3,-0.69,0)"
         d="M 8.7185878,4.0337352 -2.2072895,0.01601326 8.7185884,-4.0017078 c -1.7454984,2.3720609 -1.7354408,5.6174519 -6e-7,8.035443 z"
         style="fill-rule:evenodd;stroke-width:0.625;stroke-linejoin:round"
         id="path4969"
         inkscape:connector-curvature="0" />
    </marker>
    <marker
       style="overflow:visible"
       id="TriangleInM"
       refX="0"
       refY="0"
       orient="auto"
       inkscape:stockid="TriangleInM">
      <path
         transform="scale(-0.4,-0.4)"
         style="fill-rule:evenodd;stroke:#000000;stroke-width:1pt"
         d="m 5.77,0 -8.65,5 0,-10 8.65,5 z"
         id="path5075"
         inkscape:connector-curvature="0" />
    </marker>
    <marker
       inkscape:stockid="DotM"
       orient="auto"
       refY="0"
       refX="0"
       id="DotM"
       style="overflow:visible">
      <path
         id="path4197"
         d="m -2.5,-1 c 0,2.76 -2.24,5 -5,5 -2.76,0 -5,-2.24 -5,-5 0,-2.76 2.24,-5 5,-5 2.76,0 5,2.24 5,5 z"
         style="fill-rule:evenodd;stroke:#000000;stroke-width:1pt"
         transform="matrix(0.4,0,0,0.4,2.96,0.4)"
         inkscape:connector-curvature="0" />
    </marker>
    <marker
       inkscape:stockid="DotS"
       orient="auto"
       refY="0"
       refX="0"
       id="DotS"
       style="overflow:visible">
      <path
         id="path4200"
         d="m -2.5,-1 c 0,2.76 -2.24,5 -5,5 -2.76,0 -5,-2.24 -5,-5 0,-2.76 2.24,-5 5,-5 2.76,0 5,2.24 5,5 z"
         style="fill-rule:evenodd;stroke:#000000;stroke-width:1pt"
         transform="matrix(0.2,0,0,0.2,1.48,0.2)"
         inkscape:connector-curvature="0" />
    </marker>
    <marker
       inkscape:stockid="DotL"
       orient="auto"
       refY="0"
       refX="0"
       id="DotL"
       style="overflow:visible">
      <path
         id="path4194"
         d="m -2.5,-1 c 0,2.76 -2.24,5 -5,5 -2.76,0 -5,-2.24 -5,-5 0,-2.76 2.24,-5 5,-5 2.76,0 5,2.24 5,5 z"
         style="fill-rule:evenodd;stroke:#000000;stroke-width:1pt"
         transform="matrix(0.8,0,0,0.8,5.92,0.8)"
         inkscape:connector-curvature="0" />
    </marker>
    <marker
       inkscape:stockid="DotSv"
       orient="auto"
       refY="0"
       refX="0"
       id="DotSv"
       style="overflow:visible">
      <path
         id="path5142"
         d="m -2.5,-1 c 0,2.76 -2.24,5 -5,5 -2.76,0 -5,-2.24 -5,-5 0,-2.76 2.24,-5 5,-5 2.76,0 5,2.24 5,5 z"
         style="fill:#5e5e5e;fill-rule:evenodd;stroke:#5e5e5e;stroke-width:1pt"
         transform="matrix(0.2,0,0,0.2,1.48,0.2)"
         inkscape:connector-curvature="0" />
    </marker>
    <marker
       inkscape:stockid="DotS9"
       orient="auto"
       refY="0"
       refX="0"
       id="DotS9"
       style="overflow:visible">
      <path
         id="path5145"
         d="m -2.5,-1 c 0,2.76 -2.24,5 -5,5 -2.76,0 -5,-2.24 -5,-5 0,-2.76 2.24,-5 5,-5 2.76,0 5,2.24 5,5 z"
         style="fill:#5e5e5e;fill-rule:evenodd;stroke:#5e5e5e;stroke-width:1pt"
         transform="matrix(0.2,0,0,0.2,1.48,0.2)"
         inkscape:connector-curvature="0" />
    </marker>
    <marker
       inkscape:stockid="DotSv"
       orient="auto"
       refY="0"
       refX="0"
       id="DotSv-1"
       style="overflow:visible">
      <path
         id="path5142-3"
         d="m -2.5,-1 c 0,2.76 -2.24,5 -5,5 -2.76,0 -5,-2.24 -5,-5 0,-2.76 2.24,-5 5,-5 2.76,0 5,2.24 5,5 z"
         style="fill:#5e5e5e;fill-rule:evenodd;stroke:#5e5e5e;stroke-width:1pt"
         transform="matrix(0.2,0,0,0.2,1.48,0.2)"
         inkscape:connector-curvature="0" />
    </marker>
    <marker
       inkscape:stockid="DotS9"
       orient="auto"
       refY="0"
       refX="0"
       id="DotS9-6"
       style="overflow:visible">
      <path
         id="path5145-1"
         d="m -2.5,-1 c 0,2.76 -2.24,5 -5,5 -2.76,0 -5,-2.24 -5,-5 0,-2.76 2.24,-5 5,-5 2.76,0 5,2.24 5,5 z"
         style="fill:#5e5e5e;fill-rule:evenodd;stroke:#5e5e5e;stroke-width:1pt"
         transform="matrix(0.2,0,0,0.2,1.48,0.2)"
         inkscape:connector-curvature="0" />
    </marker>
    <marker
       inkscape:stockid="DotSv"
       orient="auto"
       refY="0"
       refX="0"
       id="DotSv-3"
       style="overflow:visible">
      <path
         id="path5142-8"
         d="m -2.5,-1 c 0,2.76 -2.24,5 -5,5 -2.76,0 -5,-2.24 -5,-5 0,-2.76 2.24,-5 5,-5 2.76,0 5,2.24 5,5 z"
         style="fill:#5e5e5e;fill-rule:evenodd;stroke:#5e5e5e;stroke-width:1pt"
         transform="matrix(0.2,0,0,0.2,1.48,0.2)"
         inkscape:connector-curvature="0" />
    </marker>
    <marker
       inkscape:stockid="DotS9"
       orient="auto"
       refY="0"
       refX="0"
       id="DotS9-4"
       style="overflow:visible">
      <path
         id="path5145-4"
         d="m -2.5,-1 c 0,2.76 -2.24,5 -5,5 -2.76,0 -5,-2.24 -5,-5 0,-2.76 2.24,-5 5,-5 2.76,0 5,2.24 5,5 z"
         style="fill:#5e5e5e;fill-rule:evenodd;stroke:#5e5e5e;stroke-width:1pt"
         transform="matrix(0.2,0,0,0.2,1.48,0.2)"
         inkscape:connector-curvature="0" />
    </marker>
    <marker
       inkscape:stockid="DotSv"
       orient="auto"
       refY="0"
       refX="0"
       id="DotSv-5"
       style="overflow:visible">
      <path
         id="path5142-39"
         d="m -2.5,-1 c 0,2.76 -2.24,5 -5,5 -2.76,0 -5,-2.24 -5,-5 0,-2.76 2.24,-5 5,-5 2.76,0 5,2.24 5,5 z"
         style="fill:#5e5e5e;fill-rule:evenodd;stroke:#5e5e5e;stroke-width:1pt"
         transform="matrix(0.2,0,0,0.2,1.48,0.2)"
         inkscape:connector-curvature="0" />
    </marker>
    <marker
       inkscape:stockid="DotS9"
       orient="auto"
       refY="0"
       refX="0"
       id="DotS9-5"
       style="overflow:visible">
      <path
         id="path5145-7"
         d="m -2.5,-1 c 0,2.76 -2.24,5 -5,5 -2.76,0 -5,-2.24 -5,-5 0,-2.76 2.24,-5 5,-5 2.76,0 5,2.24 5,5 z"
         style="fill:#5e5e5e;fill-rule:evenodd;stroke:#5e5e5e;stroke-width:1pt"
         transform="matrix(0.2,0,0,0.2,1.48,0.2)"
         inkscape:connector-curvature="0" />
    </marker>
    <marker
       inkscape:stockid="DotSv"
       orient="auto"
       refY="0"
       refX="0"
       id="DotSv-34"
       style="overflow:visible">
      <path
         id="path5142-4"
         d="m -2.5,-1 c 0,2.76 -2.24,5 -5,5 -2.76,0 -5,-2.24 -5,-5 0,-2.76 2.24,-5 5,-5 2.76,0 5,2.24 5,5 z"
         style="fill:#5e5e5e;fill-rule:evenodd;stroke:#5e5e5e;stroke-width:1pt"
         transform="matrix(0.2,0,0,0.2,1.48,0.2)"
         inkscape:connector-curvature="0" />
    </marker>
    <marker
       inkscape:stockid="DotS9"
       orient="auto"
       refY="0"
       refX="0"
       id="DotS9-51"
       style="overflow:visible">
      <path
         id="path5145-15"
         d="m -2.5,-1 c 0,2.76 -2.24,5 -5,5 -2.76,0 -5,-2.24 -5,-5 0,-2.76 2.24,-5 5,-5 2.76,0 5,2.24 5,5 z"
         style="fill:#5e5e5e;fill-rule:evenodd;stroke:#5e5e5e;stroke-width:1pt"
         transform="matrix(0.2,0,0,0.2,1.48,0.2)"
         inkscape:connector-curvature="0" />
    </marker>
    <marker
       inkscape:stockid="DotSv"
       orient="auto"
       refY="0"
       refX="0"
       id="DotSv-9"
       style="overflow:visible">
      <path
         id="path5142-44"
         d="m -2.5,-1 c 0,2.76 -2.24,5 -5,5 -2.76,0 -5,-2.24 -5,-5 0,-2.76 2.24,-5 5,-5 2.76,0 5,2.24 5,5 z"
         style="fill:#5e5e5e;fill-rule:evenodd;stroke:#5e5e5e;stroke-width:1pt"
         transform="matrix(0.2,0,0,0.2,1.48,0.2)"
         inkscape:connector-curvature="0" />
    </marker>
    <marker
       inkscape:stockid="DotS9"
       orient="auto"
       refY="0"
       refX="0"
       id="DotS9-9"
       style="overflow:visible">
      <path
         id="path5145-16"
         d="m -2.5,-1 c 0,2.76 -2.24,5 -5,5 -2.76,0 -5,-2.24 -5,-5 0,-2.76 2.24,-5 5,-5 2.76,0 5,2.24 5,5 z"
         style="fill:#5e5e5e;fill-rule:evenodd;stroke:#5e5e5e;stroke-width:1pt"
         transform="matrix(0.2,0,0,0.2,1.48,0.2)"
         inkscape:connector-curvature="0" />
    </marker>
    <marker
       inkscape:stockid="DotSv"
       orient="auto"
       refY="0"
       refX="0"
       id="DotSv-30"
       style="overflow:visible">
      <path
         id="path5142-36"
         d="m -2.5,-1 c 0,2.76 -2.24,5 -5,5 -2.76,0 -5,-2.24 -5,-5 0,-2.76 2.24,-5 5,-5 2.76,0 5,2.24 5,5 z"
         style="fill:#5e5e5e;fill-rule:evenodd;stroke:#5e5e5e;stroke-width:1pt"
         transform="matrix(0.2,0,0,0.2,1.48,0.2)"
         inkscape:connector-curvature="0" />
    </marker>
    <marker
       inkscape:stockid="DotS9"
       orient="auto"
       refY="0"
       refX="0"
       id="DotS9-8"
       style="overflow:visible">
      <path
         id="path5145-6"
         d="m -2.5,-1 c 0,2.76 -2.24,5 -5,5 -2.76,0 -5,-2.24 -5,-5 0,-2.76 2.24,-5 5,-5 2.76,0 5,2.24 5,5 z"
         style="fill:#5e5e5e;fill-rule:evenodd;stroke:#5e5e5e;stroke-width:1pt"
         transform="matrix(0.2,0,0,0.2,1.48,0.2)"
         inkscape:connector-curvature="0" />
    </marker>
    <marker
       inkscape:stockid="DotSL"
       orient="auto"
       refY="0"
       refX="0"
       id="DotSL"
       style="overflow:visible">
      <path
         id="path6893"
         d="m -2.5,-1 c 0,2.76 -2.24,5 -5,5 -2.76,0 -5,-2.24 -5,-5 0,-2.76 2.24,-5 5,-5 2.76,0 5,2.24 5,5 z"
         style="fill:#5e5e5e;fill-rule:evenodd;stroke:#5e5e5e;stroke-width:1pt"
         transform="matrix(0.2,0,0,0.2,1.48,0.2)"
         inkscape:connector-curvature="0" />
    </marker>
    <marker
       inkscape:stockid="DotSq"
       orient="auto"
       refY="0"
       refX="0"
       id="DotSq"
       style="overflow:visible">
      <path
         id="path6896"
         d="m -2.5,-1 c 0,2.76 -2.24,5 -5,5 -2.76,0 -5,-2.24 -5,-5 0,-2.76 2.24,-5 5,-5 2.76,0 5,2.24 5,5 z"
         style="fill:#5e5e5e;fill-rule:evenodd;stroke:#5e5e5e;stroke-width:1pt"
         transform="matrix(0.2,0,0,0.2,1.48,0.2)"
         inkscape:connector-curvature="0" />
    </marker>
    <marker
       inkscape:stockid="DotSv"
       orient="auto"
       refY="0"
       refX="0"
       id="DotSv-35"
       style="overflow:visible">
      <path
         id="path5142-9"
         d="m -2.5,-1 c 0,2.76 -2.24,5 -5,5 -2.76,0 -5,-2.24 -5,-5 0,-2.76 2.24,-5 5,-5 2.76,0 5,2.24 5,5 z"
         style="fill:#5e5e5e;fill-rule:evenodd;stroke:#5e5e5e;stroke-width:1pt"
         transform="matrix(0.2,0,0,0.2,1.48,0.2)"
         inkscape:connector-curvature="0" />
    </marker>
    <marker
       inkscape:stockid="DotS9"
       orient="auto"
       refY="0"
       refX="0"
       id="DotS9-3"
       style="overflow:visible">
      <path
         id="path5145-77"
         d="m -2.5,-1 c 0,2.76 -2.24,5 -5,5 -2.76,0 -5,-2.24 -5,-5 0,-2.76 2.24,-5 5,-5 2.76,0 5,2.24 5,5 z"
         style="fill:#5e5e5e;fill-rule:evenodd;stroke:#5e5e5e;stroke-width:1pt"
         transform="matrix(0.2,0,0,0.2,1.48,0.2)"
         inkscape:connector-curvature="0" />
    </marker>
    <marker
       inkscape:stockid="DotSv"
       orient="auto"
       refY="0"
       refX="0"
       id="marker3954"
       style="overflow:visible">
      <path
         id="path3956"
         d="m -2.5,-1 c 0,2.76 -2.24,5 -5,5 -2.76,0 -5,-2.24 -5,-5 0,-2.76 2.24,-5 5,-5 2.76,0 5,2.24 5,5 z"
         style="fill:#5e5e5e;fill-rule:evenodd;stroke:#5e5e5e;stroke-width:1pt"
         transform="matrix(0.2,0,0,0.2,1.48,0.2)"
         inkscape:connector-curvature="0" />
    </marker>
    <marker
       inkscape:stockid="DotS9"
       orient="auto"
       refY="0"
       refX="0"
       id="marker3958"
       style="overflow:visible">
      <path
         id="path3960"
         d="m -2.5,-1 c 0,2.76 -2.24,5 -5,5 -2.76,0 -5,-2.24 -5,-5 0,-2.76 2.24,-5 5,-5 2.76,0 5,2.24 5,5 z"
         style="fill:#5e5e5e;fill-rule:evenodd;stroke:#5e5e5e;stroke-width:1pt"
         transform="matrix(0.2,0,0,0.2,1.48,0.2)"
         inkscape:connector-curvature="0" />
    </marker>
    <marker
       inkscape:stockid="DotSv"
       orient="auto"
       refY="0"
       refX="0"
       id="DotSv-12"
       style="overflow:visible">
      <path
         id="path5142-30"
         d="m -2.5,-1 c 0,2.76 -2.24,5 -5,5 -2.76,0 -5,-2.24 -5,-5 0,-2.76 2.24,-5 5,-5 2.76,0 5,2.24 5,5 z"
         style="fill:#5e5e5e;fill-rule:evenodd;stroke:#5e5e5e;stroke-width:1pt"
         transform="matrix(0.2,0,0,0.2,1.48,0.2)"
         inkscape:connector-curvature="0" />
    </marker>
    <marker
       inkscape:stockid="DotS9"
       orient="auto"
       refY="0"
       refX="0"
       id="DotS9-89"
       style="overflow:visible">
      <path
         id="path5145-0"
         d="m -2.5,-1 c 0,2.76 -2.24,5 -5,5 -2.76,0 -5,-2.24 -5,-5 0,-2.76 2.24,-5 5,-5 2.76,0 5,2.24 5,5 z"
         style="fill:#5e5e5e;fill-rule:evenodd;stroke:#5e5e5e;stroke-width:1pt"
         transform="matrix(0.2,0,0,0.2,1.48,0.2)"
         inkscape:connector-curvature="0" />
    </marker>
    <marker
       inkscape:stockid="DotSv"
       orient="auto"
       refY="0"
       refX="0"
       id="DotSv-54"
       style="overflow:visible">
      <path
         id="path5142-82"
         d="m -2.5,-1 c 0,2.76 -2.24,5 -5,5 -2.76,0 -5,-2.24 -5,-5 0,-2.76 2.24,-5 5,-5 2.76,0 5,2.24 5,5 z"
         style="fill:#5e5e5e;fill-rule:evenodd;stroke:#5e5e5e;stroke-width:1pt"
         transform="matrix(0.2,0,0,0.2,1.48,0.2)"
         inkscape:connector-curvature="0" />
    </marker>
    <marker
       inkscape:stockid="DotS9"
       orient="auto"
       refY="0"
       refX="0"
       id="DotS9-99"
       style="overflow:visible">
      <path
         id="path5145-14"
         d="m -2.5,-1 c 0,2.76 -2.24,5 -5,5 -2.76,0 -5,-2.24 -5,-5 0,-2.76 2.24,-5 5,-5 2.76,0 5,2.24 5,5 z"
         style="fill:#5e5e5e;fill-rule:evenodd;stroke:#5e5e5e;stroke-width:1pt"
         transform="matrix(0.2,0,0,0.2,1.48,0.2)"
         inkscape:connector-curvature="0" />
    </marker>
    <marker
       inkscape:stockid="DotSv"
       orient="auto"
       refY="0"
       refX="0"
       id="DotSv-0"
       style="overflow:visible">
      <path
         id="path5142-7"
         d="m -2.5,-1 c 0,2.76 -2.24,5 -5,5 -2.76,0 -5,-2.24 -5,-5 0,-2.76 2.24,-5 5,-5 2.76,0 5,2.24 5,5 z"
         style="fill:#5e5e5e;fill-rule:evenodd;stroke:#5e5e5e;stroke-width:1pt"
         transform="matrix(0.2,0,0,0.2,1.48,0.2)"
         inkscape:connector-curvature="0" />
    </marker>
    <marker
       inkscape:stockid="DotS9"
       orient="auto"
       refY="0"
       refX="0"
       id="DotS9-37"
       style="overflow:visible">
      <path
         id="path5145-78"
         d="m -2.5,-1 c 0,2.76 -2.24,5 -5,5 -2.76,0 -5,-2.24 -5,-5 0,-2.76 2.24,-5 5,-5 2.76,0 5,2.24 5,5 z"
         style="fill:#5e5e5e;fill-rule:evenodd;stroke:#5e5e5e;stroke-width:1pt"
         transform="matrix(0.2,0,0,0.2,1.48,0.2)"
         inkscape:connector-curvature="0" />
    </marker>
    <marker
       inkscape:stockid="DotSv"
       orient="auto"
       refY="0"
       refX="0"
       id="DotSv-7"
       style="overflow:visible">
      <path
         id="path5142-6"
         d="m -2.5,-1 c 0,2.76 -2.24,5 -5,5 -2.76,0 -5,-2.24 -5,-5 0,-2.76 2.24,-5 5,-5 2.76,0 5,2.24 5,5 z"
         style="fill:#5e5e5e;fill-rule:evenodd;stroke:#5e5e5e;stroke-width:1pt"
         transform="matrix(0.2,0,0,0.2,1.48,0.2)"
         inkscape:connector-curvature="0" />
    </marker>
    <marker
       inkscape:stockid="DotS9"
       orient="auto"
       refY="0"
       refX="0"
       id="DotS9-82"
       style="overflow:visible">
      <path
         id="path5145-49"
         d="m -2.5,-1 c 0,2.76 -2.24,5 -5,5 -2.76,0 -5,-2.24 -5,-5 0,-2.76 2.24,-5 5,-5 2.76,0 5,2.24 5,5 z"
         style="fill:#5e5e5e;fill-rule:evenodd;stroke:#5e5e5e;stroke-width:1pt"
         transform="matrix(0.2,0,0,0.2,1.48,0.2)"
         inkscape:connector-curvature="0" />
    </marker>
    <marker
       inkscape:stockid="DotSv"
       orient="auto"
       refY="0"
       refX="0"
       id="DotSv-8"
       style="overflow:visible">
      <path
         id="path5142-398"
         d="m -2.5,-1 c 0,2.76 -2.24,5 -5,5 -2.76,0 -5,-2.24 -5,-5 0,-2.76 2.24,-5 5,-5 2.76,0 5,2.24 5,5 z"
         style="fill:#5e5e5e;fill-rule:evenodd;stroke:#5e5e5e;stroke-width:1pt"
         transform="matrix(0.2,0,0,0.2,1.48,0.2)"
         inkscape:connector-curvature="0" />
    </marker>
    <marker
       inkscape:stockid="DotS9"
       orient="auto"
       refY="0"
       refX="0"
       id="DotS9-39"
       style="overflow:visible">
      <path
         id="path5145-8"
         d="m -2.5,-1 c 0,2.76 -2.24,5 -5,5 -2.76,0 -5,-2.24 -5,-5 0,-2.76 2.24,-5 5,-5 2.76,0 5,2.24 5,5 z"
         style="fill:#5e5e5e;fill-rule:evenodd;stroke:#5e5e5e;stroke-width:1pt"
         transform="matrix(0.2,0,0,0.2,1.48,0.2)"
         inkscape:connector-curvature="0" />
    </marker>
    <marker
       inkscape:stockid="DotSv"
       orient="auto"
       refY="0"
       refX="0"
       id="DotSv-4"
       style="overflow:visible">
      <path
         id="path5142-42"
         d="m -2.5,-1 c 0,2.76 -2.24,5 -5,5 -2.76,0 -5,-2.24 -5,-5 0,-2.76 2.24,-5 5,-5 2.76,0 5,2.24 5,5 z"
         style="fill:#5e5e5e;fill-rule:evenodd;stroke:#5e5e5e;stroke-width:1pt"
         transform="matrix(0.2,0,0,0.2,1.48,0.2)"
         inkscape:connector-curvature="0" />
    </marker>
    <marker
       inkscape:stockid="DotS9"
       orient="auto"
       refY="0"
       refX="0"
       id="DotS9-84"
       style="overflow:visible">
      <path
         id="path5145-2"
         d="m -2.5,-1 c 0,2.76 -2.24,5 -5,5 -2.76,0 -5,-2.24 -5,-5 0,-2.76 2.24,-5 5,-5 2.76,0 5,2.24 5,5 z"
         style="fill:#5e5e5e;fill-rule:evenodd;stroke:#5e5e5e;stroke-width:1pt"
         transform="matrix(0.2,0,0,0.2,1.48,0.2)"
         inkscape:connector-curvature="0" />
    </marker>
    <marker
       inkscape:stockid="DotST"
       orient="auto"
       refY="0"
       refX="0"
       id="DotST"
       style="overflow:visible">
      <path
         id="path4771"
         d="m -2.5,-1 c 0,2.76 -2.24,5 -5,5 -2.76,0 -5,-2.24 -5,-5 0,-2.76 2.24,-5 5,-5 2.76,0 5,2.24 5,5 z"
         style="fill:#5e5e5e;fill-rule:evenodd;stroke:#5e5e5e;stroke-width:1pt"
         transform="matrix(0.2,0,0,0.2,1.48,0.2)"
         inkscape:connector-curvature="0" />
    </marker>
    <marker
       inkscape:stockid="DotSH"
       orient="auto"
       refY="0"
       refX="0"
       id="DotSH"
       style="overflow:visible">
      <path
         id="path4774"
         d="m -2.5,-1 c 0,2.76 -2.24,5 -5,5 -2.76,0 -5,-2.24 -5,-5 0,-2.76 2.24,-5 5,-5 2.76,0 5,2.24 5,5 z"
         style="fill:#5e5e5e;fill-rule:evenodd;stroke:#5e5e5e;stroke-width:1pt"
         transform="matrix(0.2,0,0,0.2,1.48,0.2)"
         inkscape:connector-curvature="0" />
    </marker>
    <marker
       inkscape:stockid="DotST"
       orient="auto"
       refY="0"
       refX="0"
       id="DotST-8"
       style="overflow:visible">
      <path
         id="path4771-6"
         d="m -2.5,-1 c 0,2.76 -2.24,5 -5,5 -2.76,0 -5,-2.24 -5,-5 0,-2.76 2.24,-5 5,-5 2.76,0 5,2.24 5,5 z"
         style="fill:#5e5e5e;fill-rule:evenodd;stroke:#5e5e5e;stroke-width:1pt"
         transform="matrix(0.2,0,0,0.2,1.48,0.2)"
         inkscape:connector-curvature="0" />
    </marker>
    <marker
       inkscape:stockid="DotSH"
       orient="auto"
       refY="0"
       refX="0"
       id="DotSH-9"
       style="overflow:visible">
      <path
         id="path4774-6"
         d="m -2.5,-1 c 0,2.76 -2.24,5 -5,5 -2.76,0 -5,-2.24 -5,-5 0,-2.76 2.24,-5 5,-5 2.76,0 5,2.24 5,5 z"
         style="fill:#5e5e5e;fill-rule:evenodd;stroke:#5e5e5e;stroke-width:1pt"
         transform="matrix(0.2,0,0,0.2,1.48,0.2)"
         inkscape:connector-curvature="0" />
    </marker>
    <marker
       style="overflow:visible"
       id="Arrow1Mendq"
       refX="0"
       refY="0"
       orient="auto"
       inkscape:stockid="Arrow1Mendq">
      <path
         transform="matrix(-0.4,0,0,-0.4,-4,0)"
         style="fill:#5e5e5e;fill-rule:evenodd;stroke:#5e5e5e;stroke-width:1pt"
         d="M 0,0 5,-5 -12.5,0 5,5 0,0 z"
         id="path6611"
         inkscape:connector-curvature="0" />
    </marker>
    <marker
       style="overflow:visible"
       id="Arrow1Mendq-7"
       refX="0"
       refY="0"
       orient="auto"
       inkscape:stockid="Arrow1Mendq">
      <path
         inkscape:connector-curvature="0"
         transform="matrix(-0.4,0,0,-0.4,-4,0)"
         style="fill:#5e5e5e;fill-rule:evenodd;stroke:#5e5e5e;stroke-width:1pt"
         d="M 0,0 5,-5 -12.5,0 5,5 0,0 z"
         id="path6611-5" />
    </marker>
    <marker
       style="overflow:visible"
       id="Arrow1Mendq-2"
       refX="0"
       refY="0"
       orient="auto"
       inkscape:stockid="Arrow1Mendq">
      <path
         inkscape:connector-curvature="0"
         transform="matrix(-0.4,0,0,-0.4,-4,0)"
         style="fill:#5e5e5e;fill-rule:evenodd;stroke:#5e5e5e;stroke-width:1pt"
         d="M 0,0 5,-5 -12.5,0 5,5 0,0 z"
         id="path6611-2" />
    </marker>
    <marker
       style="overflow:visible"
       id="Arrow1Mendq-0"
       refX="0"
       refY="0"
       orient="auto"
       inkscape:stockid="Arrow1Mendq">
      <path
         inkscape:connector-curvature="0"
         transform="matrix(-0.4,0,0,-0.4,-4,0)"
         style="fill:#5e5e5e;fill-rule:evenodd;stroke:#5e5e5e;stroke-width:1pt"
         d="M 0,0 5,-5 -12.5,0 5,5 0,0 z"
         id="path6611-4" />
    </marker>
    <marker
       inkscape:stockid="DotSv"
       orient="auto"
       refY="0"
       refX="0"
       id="DotSv-120"
       style="overflow:visible">
      <path
         id="path5142-62"
         d="m -2.5,-1 c 0,2.76 -2.24,5 -5,5 -2.76,0 -5,-2.24 -5,-5 0,-2.76 2.24,-5 5,-5 2.76,0 5,2.24 5,5 z"
         style="fill:#5e5e5e;fill-rule:evenodd;stroke:#5e5e5e;stroke-width:1pt"
         transform="matrix(0.2,0,0,0.2,1.48,0.2)"
         inkscape:connector-curvature="0" />
    </marker>
    <marker
       inkscape:stockid="DotS9"
       orient="auto"
       refY="0"
       refX="0"
       id="DotS9-1"
       style="overflow:visible">
      <path
         id="path5145-01"
         d="m -2.5,-1 c 0,2.76 -2.24,5 -5,5 -2.76,0 -5,-2.24 -5,-5 0,-2.76 2.24,-5 5,-5 2.76,0 5,2.24 5,5 z"
         style="fill:#5e5e5e;fill-rule:evenodd;stroke:#5e5e5e;stroke-width:1pt"
         transform="matrix(0.2,0,0,0.2,1.48,0.2)"
         inkscape:connector-curvature="0" />
    </marker>
    <marker
       inkscape:stockid="DotSv"
       orient="auto"
       refY="0"
       refX="0"
       id="DotSv-47"
       style="overflow:visible">
      <path
         id="path5142-67"
         d="m -2.5,-1 c 0,2.76 -2.24,5 -5,5 -2.76,0 -5,-2.24 -5,-5 0,-2.76 2.24,-5 5,-5 2.76,0 5,2.24 5,5 z"
         style="fill:#5e5e5e;fill-rule:evenodd;stroke:#5e5e5e;stroke-width:1pt"
         transform="matrix(0.2,0,0,0.2,1.48,0.2)"
         inkscape:connector-curvature="0" />
    </marker>
    <marker
       inkscape:stockid="DotS9"
       orient="auto"
       refY="0"
       refX="0"
       id="DotS9-52"
       style="overflow:visible">
      <path
         id="path5145-152"
         d="m -2.5,-1 c 0,2.76 -2.24,5 -5,5 -2.76,0 -5,-2.24 -5,-5 0,-2.76 2.24,-5 5,-5 2.76,0 5,2.24 5,5 z"
         style="fill:#5e5e5e;fill-rule:evenodd;stroke:#5e5e5e;stroke-width:1pt"
         transform="matrix(0.2,0,0,0.2,1.48,0.2)"
         inkscape:connector-curvature="0" />
    </marker>
    <marker
       inkscape:stockid="DotSv"
       orient="auto"
       refY="0"
       refX="0"
       id="DotSv-2"
       style="overflow:visible">
      <path
         id="path5142-5"
         d="m -2.5,-1 c 0,2.76 -2.24,5 -5,5 -2.76,0 -5,-2.24 -5,-5 0,-2.76 2.24,-5 5,-5 2.76,0 5,2.24 5,5 z"
         style="fill:#5e5e5e;fill-rule:evenodd;stroke:#5e5e5e;stroke-width:1pt"
         transform="matrix(0.2,0,0,0.2,1.48,0.2)"
         inkscape:connector-curvature="0" />
    </marker>
    <marker
       inkscape:stockid="DotS9"
       orient="auto"
       refY="0"
       refX="0"
       id="DotS9-92"
       style="overflow:visible">
      <path
         id="path5145-148"
         d="m -2.5,-1 c 0,2.76 -2.24,5 -5,5 -2.76,0 -5,-2.24 -5,-5 0,-2.76 2.24,-5 5,-5 2.76,0 5,2.24 5,5 z"
         style="fill:#5e5e5e;fill-rule:evenodd;stroke:#5e5e5e;stroke-width:1pt"
         transform="matrix(0.2,0,0,0.2,1.48,0.2)"
         inkscape:connector-curvature="0" />
    </marker>
    <marker
       inkscape:stockid="DotSv"
       orient="auto"
       refY="0"
       refX="0"
       id="DotSv-83"
       style="overflow:visible">
      <path
         id="path5142-86"
         d="m -2.5,-1 c 0,2.76 -2.24,5 -5,5 -2.76,0 -5,-2.24 -5,-5 0,-2.76 2.24,-5 5,-5 2.76,0 5,2.24 5,5 z"
         style="fill:#5e5e5e;fill-rule:evenodd;stroke:#5e5e5e;stroke-width:1pt"
         transform="matrix(0.2,0,0,0.2,1.48,0.2)"
         inkscape:connector-curvature="0" />
    </marker>
    <marker
       inkscape:stockid="DotS9"
       orient="auto"
       refY="0"
       refX="0"
       id="DotS9-0"
       style="overflow:visible">
      <path
         id="path5145-68"
         d="m -2.5,-1 c 0,2.76 -2.24,5 -5,5 -2.76,0 -5,-2.24 -5,-5 0,-2.76 2.24,-5 5,-5 2.76,0 5,2.24 5,5 z"
         style="fill:#5e5e5e;fill-rule:evenodd;stroke:#5e5e5e;stroke-width:1pt"
         transform="matrix(0.2,0,0,0.2,1.48,0.2)"
         inkscape:connector-curvature="0" />
    </marker>
    <marker
       inkscape:stockid="DotSv"
       orient="auto"
       refY="0"
       refX="0"
       id="DotSv-6"
       style="overflow:visible">
      <path
         id="path5142-56"
         d="m -2.5,-1 c 0,2.76 -2.24,5 -5,5 -2.76,0 -5,-2.24 -5,-5 0,-2.76 2.24,-5 5,-5 2.76,0 5,2.24 5,5 z"
         style="fill:#5e5e5e;fill-rule:evenodd;stroke:#5e5e5e;stroke-width:1pt"
         transform="matrix(0.2,0,0,0.2,1.48,0.2)"
         inkscape:connector-curvature="0" />
    </marker>
    <marker
       inkscape:stockid="DotS9"
       orient="auto"
       refY="0"
       refX="0"
       id="DotS9-7"
       style="overflow:visible">
      <path
         id="path5145-21"
         d="m -2.5,-1 c 0,2.76 -2.24,5 -5,5 -2.76,0 -5,-2.24 -5,-5 0,-2.76 2.24,-5 5,-5 2.76,0 5,2.24 5,5 z"
         style="fill:#5e5e5e;fill-rule:evenodd;stroke:#5e5e5e;stroke-width:1pt"
         transform="matrix(0.2,0,0,0.2,1.48,0.2)"
         inkscape:connector-curvature="0" />
    </marker>
  </defs>
  <metadata
     id="metadata3174">
    <rdf:RDF>
      <cc:Work
         rdf:about="">
        <dc:format>image/svg+xml</dc:format>
        <dc:type
           rdf:resource="http://purl.org/dc/dcmitype/StillImage" />
        <dc:title></dc:title>
      </cc:Work>
    </rdf:RDF>
  </metadata>
  <g
     inkscape:label="Layer 1"
     inkscape:groupmode="layer"
     id="layer1"
     transform="translate(2.1971286,1.6147446)">
    <rect
       style="fill:#a9d4f8;fill-opacity:1;stroke:#418ccb;stroke-width:3;stroke-miterlimit:2.9000001;stroke-opacity:1;stroke-dasharray:none"
       id="rect3177"
       width="296.78079"
       height="332.24567"
       x="0.10202555"
       y="-0.11474465"
       rx="20.218994" />
    <text
       xml:space="preserve"
       style="font-size:40px;font-style:normal;font-weight:normal;line-height:125%;letter-spacing:0px;word-spacing:0px;fill:#0d01a2;fill-opacity:1;stroke:none;font-family:Sans"
       x="30.99493"
       y="23.785709"
       id="text6959-5"
       sodipodi:linespacing="125%"
       inkscape:transform-center-x="-73.741136"
       inkscape:transform-center-y="52.527932"><tspan
         sodipodi:role="line"
         id="tspan6961-4"
         x="30.99493"
         y="23.785709"
         style="font-size:24px;line-height:125%;fill:#0d01a2;fill-opacity:1">GameOfLifePipeline</tspan></text>
    <rect
       style="fill:#ffb97b;fill-opacity:1;stroke:#ff6c00;stroke-width:2;stroke-miterlimit:2.9000001;stroke-opacity:1;stroke-dasharray:6, 2;stroke-dashoffset:0"
       id="rect3177-0-4"
       width="243.85706"
       height="63.212017"
       x="25.464582"
       y="112.00529"
       rx="16.613422" />
    <path
       style="fill:none;stroke:#5e5e5e;stroke-width:3;stroke-linecap:butt;stroke-linejoin:miter;stroke-miterlimit:1.89999998;stroke-opacity:1;stroke-dasharray:9, 3;stroke-dashoffset:0;marker-start:url(#DotSv);marker-end:url(#DotS9)"
       d="m 1.2378714,139.33004 25.1453936,0"
       id="path3947-6-9-9-3"
       inkscape:connector-curvature="0" />
    <path
       style="fill:none;stroke:#5e5e5e;stroke-width:3;stroke-linecap:butt;stroke-linejoin:miter;stroke-miterlimit:4;stroke-opacity:1;stroke-dasharray:9, 3;stroke-dashoffset:0;marker-start:url(#DotST);marker-end:url(#DotSH)"
       d="m 284.0924,139.65658 0,54.93651 -273.555538,31.20653 0,59.16239"
       id="path4195"
       inkscape:connector-curvature="0" />
    <path
       style="fill:none;stroke:#5e5e5e;stroke-width:3;stroke-linecap:butt;stroke-linejoin:miter;stroke-miterlimit:4;stroke-opacity:1;stroke-dasharray:9, 3;stroke-dashoffset:0;marker-start:url(#DotST);marker-mid:none;marker-end:url(#DotSH)"
       d="m 14.768613,139.66857 0,54.15365 266.520617,30.76184 0,58.31932"
       id="path4195-0"
       inkscape:connector-curvature="0" />
    <path
       inkscape:connector-curvature="0"
       id="path6251-0"
       d="m 11.041491,231.10108 -0.16871,43.44798"
       style="fill:none;stroke:#5e5e5e;stroke-width:3;stroke-linecap:butt;stroke-linejoin:miter;stroke-miterlimit:4;stroke-opacity:1;stroke-dasharray:none;marker-end:url(#Arrow1Mendq)" />
    <path
       inkscape:connector-curvature="0"
       id="path6251-6"
       d="m 14.499699,192.30412 -0.1687,-43.44798"
       style="fill:none;stroke:#5e5e5e;stroke-width:3;stroke-linecap:butt;stroke-linejoin:miter;stroke-miterlimit:4;stroke-opacity:1;stroke-dasharray:none;marker-end:url(#Arrow1Mendq)" />
    <path
       style="fill:none;stroke:#5e5e5e;stroke-width:3;stroke-linecap:butt;stroke-linejoin:miter;stroke-miterlimit:1.89999998;stroke-opacity:1;stroke-dasharray:9, 3;stroke-dashoffset:0;marker-start:url(#DotSv);marker-end:none"
       d="m 297.37191,139.90551 44.53156,0"
       id="path3947-6-9-9-3-9"
       inkscape:connector-curvature="0" />
    <g
       id="g4343"
       transform="translate(-188.57143,-35)">
      <rect
         rx="7.4689469"
         y="150.19795"
         x="527.66022"
         height="49.700813"
         width="109.63155"
         id="rect3177-0-40"
         style="fill:#c6c6c6;fill-opacity:1;stroke:#9d9d9d;stroke-width:2;stroke-miterlimit:2.9000001;stroke-opacity:1;stroke-dasharray:none" />
      <text
         sodipodi:linespacing="125%"
         id="text7161"
         y="183.6198"
         x="533.19019"
         style="font-size:40px;font-style:normal;font-weight:normal;line-height:125%;letter-spacing:0px;word-spacing:0px;fill:#000000;fill-opacity:1;stroke:none;font-family:Sans"
         xml:space="preserve"><tspan
           style="font-size:28px;fill:#5e5e5e;fill-opacity:1"
           y="183.6198"
           x="533.19019"
           id="tspan7163"
           sodipodi:role="line">Screen</tspan></text>
    </g>
    <rect
       style="fill:#ffb97b;fill-opacity:1;stroke:#ff6c00;stroke-width:2;stroke-miterlimit:2.9000001;stroke-opacity:1;stroke-dasharray:6, 2;stroke-dashoffset:0"
       id="rect3177-0-4-4"
       width="243.85706"
       height="63.212017"
       x="24.874346"
       y="249.20906"
       rx="16.613422" />
    <path
       style="fill:none;stroke:#5e5e5e;stroke-width:3.15715837;stroke-linecap:butt;stroke-linejoin:miter;stroke-miterlimit:1.89999998;stroke-opacity:1;stroke-dasharray:9.47147488, 3.15715829;stroke-dashoffset:0;marker-start:url(#DotSv);marker-end:url(#DotS9)"
       d="m 269.29018,139.3865 27.84893,0"
       id="path3947-6-9-9-3-7"
       inkscape:connector-curvature="0" />
    <path
       style="fill:none;stroke:#5e5e5e;stroke-width:3;stroke-linecap:butt;stroke-linejoin:miter;stroke-miterlimit:1.89999998;stroke-opacity:1;stroke-dasharray:9, 3;stroke-dashoffset:0;marker-start:url(#DotSv);marker-end:url(#DotS9)"
       d="m 269.29018,282.95792 12.78698,0"
       id="path3947-6-9-9-3-1"
       inkscape:connector-curvature="0" />
    <path
       style="fill:none;stroke:#5e5e5e;stroke-width:3;stroke-linecap:butt;stroke-linejoin:miter;stroke-miterlimit:1.89999998;stroke-opacity:1;stroke-dasharray:9, 3;stroke-dashoffset:0;marker-start:url(#DotSv);marker-end:url(#DotS9)"
       d="m 11.540813,284.38649 12.78698,0"
       id="path3947-6-9-9-3-1-1"
       inkscape:connector-curvature="0" />
    <g
       id="g4348">
      <rect
         rx="16.764025"
         y="36.993443"
         x="23.604177"
         height="58.279766"
         width="246.06766"
         id="rect3177-0"
         style="fill:#59ff5b;fill-opacity:1;stroke:#00c404;stroke-width:2;stroke-miterlimit:2.9000001;stroke-opacity:1;stroke-dasharray:none" />
      <text
         sodipodi:linespacing="125%"
         id="text6959"
         y="64.090355"
         x="56.893425"
         style="font-size:40px;font-style:normal;font-weight:normal;line-height:125%;letter-spacing:0px;word-spacing:0px;fill:#009718;fill-opacity:1;stroke:none;font-family:Sans"
         xml:space="preserve"><tspan
           style="font-size:22px;line-height:125%"
           y="64.090355"
           x="56.893425"
           id="tspan6961"
           sodipodi:role="line">GameOfLifeFilter</tspan></text>
      <text
         sodipodi:linespacing="125%"
         id="text6959-6"
         y="80.679138"
         x="82.370567"
         style="font-size:40px;font-style:normal;font-weight:normal;line-height:125%;letter-spacing:0px;word-spacing:0px;fill:#009718;fill-opacity:1;stroke:none;font-family:Sans"
         xml:space="preserve"><tspan
           style="font-size:14px;line-height:125%"
           y="80.679138"
           x="82.370567"
           id="tspan6961-16"
           sodipodi:role="line">(Fragment Shader)</tspan></text>
      <text
         sodipodi:linespacing="125%"
         id="text6959-8"
         y="148.30243"
         x="72.406029"
         style="font-size:40px;font-style:normal;font-weight:normal;line-height:125%;letter-spacing:0px;word-spacing:0px;fill:#009718;fill-opacity:1;stroke:none;font-family:Sans"
         xml:space="preserve"><tspan
           style="font-size:22px;line-height:125%;fill:#ff620f;fill-opacity:1"
           y="148.30243"
           x="72.406029"
           id="tspan6961-1"
           sodipodi:role="line">Buffers Cell A</tspan></text>
      <text
         sodipodi:linespacing="125%"
         id="text6959-8-0"
         y="288.30243"
         x="66.580704"
         style="font-size:40px;font-style:normal;font-weight:normal;line-height:125%;letter-spacing:0px;word-spacing:0px;fill:#009718;fill-opacity:1;stroke:none;font-family:Sans"
         xml:space="preserve"><tspan
           style="font-size:22px;line-height:125%;fill:#ff620f;fill-opacity:1"
           y="288.30243"
           x="66.580704"
           id="tspan6961-1-5"
           sodipodi:role="line">Buffers Cell B</tspan></text>
    </g>
  </g>
</svg>
